<?xml version="1.0" standalone="no"?>
<!DOCTYPE svg PUBLIC "-//W3C//DTD SVG 20010904//EN"
 "http://www.w3.org/TR/2001/REC-SVG-20010904/DTD/svg10.dtd">
<svg version="1.0" xmlns="http://www.w3.org/2000/svg"
 width="612.000000pt" height="408.000000pt" viewBox="0 0 612.000000 408.000000"
 preserveAspectRatio="xMidYMid meet">

<g transform="translate(0.000000,408.000000) scale(0.100000,-0.100000)"
fill="#000000" stroke="none">
<path d="M0 2040 l0 -2040 3060 0 3060 0 0 1440 0 1440 -41 0 c-24 0 -38 4
-34 10 4 6 -5 10 -19 10 -14 0 -26 4 -26 8 0 13 -74 34 -78 22 -8 -23 -145 -2
-164 25 -5 6 -14 6 -25 -3 -10 -7 -33 -19 -51 -28 -18 -8 -35 -21 -39 -29 -3
-8 -15 -15 -27 -16 -20 0 -20 -1 -1 -9 17 -7 15 -9 -12 -9 -18 -1 -33 4 -33 9
0 6 -28 10 -65 10 -37 0 -65 -4 -65 -10 0 -5 -18 -10 -40 -10 -22 0 -40 5 -40
10 0 6 -15 10 -33 10 -18 0 -38 5 -44 11 -8 8 -22 4 -49 -14 -70 -45 -224 -53
-299 -17 -23 11 -51 20 -64 20 -12 0 -32 5 -44 11 -16 9 -22 9 -25 0 -2 -6 -8
-11 -14 -11 -14 0 -47 -42 -48 -62 0 -9 -6 -18 -12 -21 -30 -11 92 -107 155
-123 35 -8 50 -37 42 -80 -5 -28 -10 -34 -31 -34 -23 0 -80 -32 -96 -54 -3 -5
-30 -10 -60 -10 -49 -1 -54 -4 -68 -31 -9 -16 -20 -37 -25 -45 -5 -8 -8 -25
-6 -37 1 -13 -2 -23 -8 -23 -6 0 -11 -8 -11 -18 0 -11 -8 -26 -18 -35 -24 -22
-111 -23 -138 -2 -10 8 -26 15 -35 15 -21 0 -86 73 -70 78 14 5 15 82 1 82 -6
0 -10 33 -10 80 0 66 -3 80 -16 80 -10 0 -12 4 -7 13 40 62 42 143 5 210 -38
70 -46 111 -27 148 9 16 22 29 30 29 21 0 9 46 -19 80 -12 14 -30 42 -40 62
-13 25 -29 38 -48 42 -36 7 -36 24 -1 32 16 4 45 24 65 46 21 21 41 38 44 38
3 0 18 8 32 19 15 10 50 21 77 24 191 21 277 38 313 61 61 41 137 61 180 48
81 -23 118 -23 202 -3 45 12 96 21 111 21 23 0 29 5 29 21 0 19 -55 100 -73
108 -5 2 -23 17 -40 35 -23 23 -48 35 -92 44 -33 8 -73 20 -88 28 -16 8 -35
14 -43 14 -20 0 -93 53 -94 68 0 6 -4 12 -9 12 -5 0 -11 18 -15 40 -3 22 -11
40 -16 40 -6 0 -10 6 -10 13 0 8 -11 24 -24 36 -14 13 -23 28 -20 35 2 6 -5
26 -16 44 l-20 32 -1582 0 c-1494 0 -1673 -3 -1506 -26 63 -9 79 -27 37 -44
-26 -11 -35 -11 -57 2 -28 16 -71 25 -156 33 -26 2 -56 11 -65 19 -16 14 -97
16 -704 16 l-687 0 0 -2040z m1845 1959 c6 -4 17 -4 25 1 24 16 30 12 30 -21
l0 -31 -42 9 c-24 4 -67 7 -95 6 -29 0 -53 3 -53 8 0 5 9 9 20 9 14 0 20 7 20
21 0 19 4 20 43 14 23 -4 47 -11 52 -16z m155 -50 c0 -5 -9 -9 -20 -9 -11 0
-20 6 -20 14 0 9 7 12 20 9 11 -3 20 -9 20 -14z m153 -13 c21 -1 27 -6 27 -23
0 -26 3 -26 -75 -10 -44 10 -61 18 -63 31 -4 17 0 18 39 11 24 -5 56 -9 72 -9z
m67 -31 c0 -14 -6 -25 -14 -25 -9 0 -12 8 -8 25 2 14 8 25 13 25 5 0 9 -11 9
-25z m52 6 c-8 -4 -13 -11 -13 -15 3 -24 -2 -29 -14 -12 -18 23 -11 36 18 36
16 0 18 -3 9 -9z m38 -26 c0 -14 -6 -25 -14 -25 -9 0 -12 8 -8 25 2 14 8 25
13 25 5 0 9 -11 9 -25z m46 -6 c10 -17 -13 -36 -27 -22 -12 12 -4 33 11 33 5
0 12 -5 16 -11z m49 -9 c3 -5 0 -7 -9 -4 -8 3 -16 -2 -19 -13 -4 -14 -5 -14
-6 5 -1 22 22 31 34 12z m129 -49 c-12 -13 -63 -2 -60 13 2 6 1 8 -1 4 -7 -12
-23 -10 -23 2 0 17 31 24 41 9 7 -11 9 -10 9 4 0 16 2 16 22 -3 14 -12 18 -24
12 -29z m-1086 -8 c27 -10 46 -15 64 -16 9 -1 14 -6 11 -11 -4 -5 1 -7 11 -3
9 4 48 1 87 -5 73 -13 89 -30 45 -49 -18 -9 -31 -7 -59 6 -21 10 -75 20 -129
23 -78 6 -93 10 -96 25 -2 10 2 24 8 32 11 13 18 13 58 -2z m322 2 c0 -8 -2
-15 -4 -15 -2 0 -6 7 -10 15 -3 8 -1 15 4 15 6 0 10 -7 10 -15z m675 5 c13 -6
15 -9 5 -9 -8 0 -22 4 -30 9 -18 12 -2 12 25 0z m199 -1 c31 -8 41 -8 47 3 6
9 9 2 9 -20 0 -29 -2 -32 -19 -23 -10 6 -20 8 -23 6 -10 -10 -78 17 -78 30 0
18 12 18 64 4z m-713 -20 c19 -23 17 -39 -5 -39 -8 0 -16 14 -18 30 -5 36 -1
37 23 9z m634 11 c3 -5 1 -10 -4 -10 -6 0 -11 5 -11 10 0 6 2 10 4 10 3 0 8
-4 11 -10z m167 -19 c3 -19 0 -27 -7 -25 -9 4 -12 32 -6 52 4 10 9 -3 13 -27z
m-862 4 c0 -8 5 -15 11 -15 6 0 8 7 4 18 -5 14 -4 15 6 5 20 -20 -4 -41 -26
-23 -17 14 -20 30 -5 30 6 0 10 -7 10 -15z m905 -2 c-2 -10 -4 -22 -4 -28 -1
-5 -5 -4 -10 4 -10 15 -4 41 9 41 5 0 7 -8 5 -17z m35 -18 c0 -14 -4 -25 -8
-25 -7 0 -8 31 -3 48 4 11 11 -3 11 -23z m-820 -10 c0 -17 -5 -25 -17 -25 -15
0 -15 2 -4 9 8 5 11 16 8 25 -4 9 -2 16 3 16 6 0 10 -11 10 -25z m50 5 c0 -5
-3 -9 -7 -9 -21 3 -26 -2 -13 -12 13 -9 13 -10 0 -6 -24 6 -25 37 -1 37 12 0
21 -4 21 -10z m818 -13 c2 -10 -3 -17 -12 -17 -10 0 -16 9 -16 21 0 24 23 21
28 -4z m-794 -1 c-3 -8 2 -16 13 -20 15 -4 15 -5 -2 -3 -20 2 -35 37 -16 37 6
0 8 -6 5 -14z m61 -14 c2 -26 -11 -20 -18 8 -3 13 -1 20 6 17 6 -2 11 -13 12
-25z m771 16 c4 -6 3 -8 -4 -4 -6 3 -13 -2 -15 -11 -4 -14 -5 -13 -6 5 -1 23
13 30 25 10z m-687 -25 c0 -25 -1 -25 -8 -8 -5 11 -7 23 -4 28 8 14 13 7 12
-20z m725 11 c9 -22 -3 -32 -14 -14 -12 19 -12 30 -1 30 5 0 12 -7 15 -16z
m-1121 -9 c10 -2 27 -7 37 -10 10 -3 21 -1 25 5 12 20 25 10 25 -21 l0 -30
-47 8 c-27 4 -69 7 -95 6 -27 -1 -48 2 -48 7 0 4 8 7 18 6 9 0 18 6 18 14 1 8
2 19 3 24 0 4 11 5 24 2 12 -4 30 -9 40 -11z m1232 -9 c11 -2 26 -4 33 -5 17
-2 15 -31 -3 -31 -8 0 -15 5 -15 11 0 6 -9 9 -20 6 -11 -3 -27 1 -34 9 -11 11
-16 11 -19 1 -3 -6 -6 -4 -6 7 -1 14 4 17 22 12 12 -4 31 -9 42 -10z m-798
-11 c0 -8 -4 -12 -9 -9 -5 3 -6 10 -3 15 9 13 12 11 12 -6z m28 6 c3 -5 2 -12
-3 -15 -5 -3 -9 1 -9 9 0 17 3 19 12 6z m695 -1 c0 -5 -2 -10 -4 -10 -3 0 -8
5 -11 10 -3 6 -1 10 4 10 6 0 11 -4 11 -10z m147 -20 c0 -16 -4 -27 -9 -24
-10 6 -11 38 -1 47 9 10 10 10 10 -23z m-767 6 c-1 -5 4 -13 12 -17 10 -7 9
-9 -4 -9 -10 0 -18 6 -18 14 0 8 -6 17 -12 20 -7 3 -5 5 5 3 10 -1 17 -6 17
-11z m50 -23 c0 -25 -15 -12 -17 14 -1 19 1 22 8 12 5 -8 9 -20 9 -26z m762
26 c2 -5 18 -11 36 -11 17 -1 32 -4 32 -8 0 -4 25 -13 55 -20 30 -7 55 -17 55
-23 0 -5 -8 -6 -17 -2 -10 4 -40 9 -67 11 -66 4 -96 12 -96 26 0 6 -8 17 -17
24 -16 12 -16 13 -1 14 9 0 18 -5 20 -11z m-1171 -9 c5 0 9 -9 9 -20 0 -11 -4
-20 -9 -20 -23 0 -41 14 -41 32 0 14 5 18 16 14 9 -3 20 -6 25 -6z m38 3 c-1
-5 -1 -16 0 -25 1 -22 21 -24 21 -3 0 17 9 19 30 5 13 -8 12 -10 -2 -10 -10 0
-18 -4 -18 -10 0 -5 -11 -10 -23 -10 -20 0 -24 5 -25 30 0 17 4 30 9 30 5 0 8
-3 8 -7z m421 -14 c0 -5 -4 -8 -9 -5 -5 4 -12 0 -14 -6 -3 -8 -6 -6 -6 5 -1 9
6 17 14 17 8 0 15 -5 15 -11z m-515 -9 c3 -5 2 -10 -4 -10 -5 0 -13 5 -16 10
-3 6 -2 10 4 10 5 0 13 -4 16 -10z m549 3 c-5 -5 -12 -12 -16 -18 -4 -6 -8 -2
-8 8 0 9 7 17 17 17 9 0 12 -3 7 -7z m-314 -20 c8 -4 22 -5 32 -4 9 1 20 -3
24 -10 4 -8 3 -9 -4 -5 -7 4 -12 1 -12 -8 0 -9 -4 -16 -10 -16 -5 0 -10 4 -10
10 0 5 -7 7 -16 3 -9 -3 -24 4 -36 17 -21 22 -22 22 -29 4 -7 -17 -8 -17 -8 4
-1 19 3 22 27 16 15 -3 34 -8 42 -11z m366 6 c3 -6 1 -16 -5 -22 -9 -9 -11 -8
-6 6 8 19 -10 24 -18 5 -3 -8 -6 -6 -6 5 -1 19 24 23 35 6z m41 -5 c-3 -3 -12
-4 -19 -1 -8 3 -5 6 6 6 11 1 17 -2 13 -5z m82 -32 c-1 -16 -2 -16 -6 0 -3 11
-11 15 -21 12 -14 -5 -14 -4 -2 4 18 13 30 6 29 -16z m41 -3 c0 -10 -7 -19
-15 -19 -9 0 -15 9 -15 25 0 18 4 23 15 19 8 -4 15 -15 15 -25z m-337 -30
c-16 -16 -77 3 -81 25 -3 16 1 18 22 12 16 -4 26 -2 26 4 0 6 10 2 22 -10 15
-14 19 -23 11 -31z m37 6 c0 -27 -4 -35 -17 -34 -11 0 -13 3 -5 6 6 2 12 18
12 34 0 16 2 29 5 29 3 0 5 -16 5 -35z m-883 4 c18 -6 37 -8 42 -5 5 4 11 1
13 -6 3 -8 25 -13 59 -13 51 0 54 -2 57 -26 3 -25 1 -26 -39 -23 -26 2 -46 9
-51 19 -5 8 -13 13 -17 11 -4 -3 -34 -5 -67 -6 -85 -2 -124 9 -124 34 0 35 46
40 127 15z m940 -4 c12 1 19 -3 16 -8 -3 -5 1 -13 8 -18 11 -7 10 -9 -3 -9
-10 0 -18 5 -18 11 0 6 -9 9 -20 6 -11 -3 -23 -1 -26 4 -7 12 7 34 15 22 3 -6
16 -9 28 -8z m160 9 c-3 -3 -12 -4 -19 -1 -8 3 -5 6 6 6 11 1 17 -2 13 -5z
m-92 -34 c1 -11 -2 -20 -7 -20 -4 0 -8 7 -8 15 0 8 -6 15 -12 15 -9 0 -8 3 2
10 17 11 23 6 25 -20z m-248 14 c-3 -3 -12 -4 -19 -1 -8 3 -5 6 6 6 11 1 17
-2 13 -5z m-537 -30 c0 -8 4 -13 9 -9 17 10 92 -7 98 -22 8 -20 -6 -30 -17
-13 -6 10 -10 11 -10 3 0 -9 -11 -11 -32 -7 -18 3 -43 5 -55 5 -19 -1 -23 5
-23 27 0 16 3 32 6 35 10 10 24 -2 24 -19z m880 -4 c0 -5 -2 -10 -4 -10 -3 0
-8 5 -11 10 -3 6 -1 10 4 10 6 0 11 -4 11 -10z m111 0 c0 -3 2 -13 4 -22 2
-10 -3 -18 -11 -18 -9 0 -11 6 -7 18 6 15 5 15 -10 3 -20 -15 -47 -8 -47 13 0
10 10 14 35 13 19 -1 35 -4 36 -7z m43 -17 c-5 -5 -12 -12 -16 -18 -4 -6 -8
-2 -8 8 0 9 7 17 17 17 9 0 12 -3 7 -7z m-1324 -12 c0 -9 46 -20 115 -27 77
-8 127 -19 127 -29 1 -5 -10 -16 -23 -24 -22 -12 -30 -12 -62 4 -33 15 -62 19
-189 24 -33 1 -38 4 -38 24 0 13 3 27 7 30 10 10 63 8 63 -2z m1390 -11 c0 -9
3 -11 8 -5 11 15 39 17 48 4 4 -8 3 -9 -4 -5 -7 4 -12 0 -13 -11 0 -10 -3 -13
-5 -6 -3 7 -12 9 -20 6 -8 -3 -21 3 -29 13 -13 17 -16 17 -25 4 -8 -13 -10
-13 -10 2 0 13 7 17 25 16 15 -2 25 -9 25 -18z m-890 -12 c0 -13 -32 -6 -37 9
-3 7 3 9 16 6 12 -3 21 -10 21 -15z m40 -3 c14 -16 10 -18 -14 -9 -9 3 -16 10
-16 15 0 14 16 11 30 -6z m133 4 c12 0 17 -8 16 -27 0 -15 -3 -21 -6 -14 -2 6
-11 12 -18 12 -7 0 -16 -6 -18 -12 -3 -7 -6 0 -6 15 -1 16 -5 26 -9 23 -4 -2
-14 0 -22 5 -11 8 -7 9 15 4 17 -3 38 -6 48 -6z m897 -26 c0 -15 -19 -17 -54
-3 -30 11 -35 30 -8 30 14 0 15 -2 2 -10 -10 -7 -11 -10 -2 -10 7 0 15 7 18
15 5 11 10 12 25 2 10 -6 19 -17 19 -24z m-845 -8 c0 -14 -4 -25 -10 -25 -5 0
-10 13 -10 29 0 16 5 27 10 25 6 -2 10 -15 10 -29z m30 15 c-4 -6 1 -7 11 -3
13 5 16 3 11 -10 -3 -9 -2 -19 3 -22 6 -4 10 3 10 15 0 30 24 20 28 -11 2 -19
1 -21 -7 -9 -7 10 -11 11 -11 3 0 -19 -30 -16 -37 3 -5 13 -7 13 -14 2 -6 -9
-9 -4 -9 15 0 15 5 27 11 27 5 0 7 -4 4 -10z m109 -19 c3 -5 14 -7 25 -4 14 3
20 -2 23 -21 3 -14 1 -26 -3 -26 -5 0 -9 4 -9 8 0 5 -15 8 -32 8 -27 -1 -34 3
-36 22 -3 22 21 32 32 13z m613 3 c-3 -3 -12 -4 -19 -1 -8 3 -5 6 6 6 11 1 17
-2 13 -5z m-1059 -17 c26 0 32 -4 32 -22 0 -20 -4 -21 -90 -20 -50 1 -93 5
-97 8 -3 4 3 7 14 7 17 0 20 5 15 22 -5 20 -3 21 44 13 27 -5 64 -8 82 -8z
m567 -5 c16 -12 14 -38 -4 -39 -11 -1 -16 7 -16 23 0 25 4 28 20 16z m55 -12
c0 -5 -7 -7 -15 -4 -8 4 -15 8 -15 10 0 2 7 4 15 4 8 0 15 -4 15 -10z m-1040
-9 c0 -5 10 -9 23 -8 24 0 113 -10 153 -18 13 -3 35 -7 49 -10 14 -3 25 -10
25 -16 0 -6 -4 -8 -9 -5 -5 3 -11 -1 -15 -9 -7 -18 -39 -19 -69 -3 -12 6 -67
14 -122 17 l-100 6 -3 28 c-3 25 -1 27 32 27 20 0 36 -4 36 -9z m520 -8 c0
-15 2 -16 10 -3 8 12 10 10 10 -9 0 -17 -4 -22 -16 -17 -9 3 -18 6 -20 6 -2 0
-4 9 -4 20 0 11 5 20 10 20 6 0 10 -8 10 -17z m55 -3 c-3 -5 -11 -10 -16 -10
-6 0 -7 5 -4 10 3 6 11 10 16 10 6 0 7 -4 4 -10z m-90 -10 c3 -5 2 -10 -4 -10
-5 0 -13 5 -16 10 -3 6 -2 10 4 10 5 0 13 -4 16 -10z m150 -10 c0 -8 -8 -16
-17 -18 -13 -2 -18 3 -18 18 0 15 5 20 18 18 9 -2 17 -10 17 -18z m-45 0 c0
-5 -10 -10 -22 -10 -19 0 -20 2 -8 10 19 13 30 13 30 0z m146 -21 c0 -12 -5
-18 -14 -14 -7 3 -17 5 -21 5 -4 0 -7 8 -7 18 0 13 6 17 21 14 13 -2 21 -11
21 -23z m211 25 c-3 -3 -12 -4 -19 -1 -8 3 -5 6 6 6 11 1 17 -2 13 -5z m128
-4 c3 -5 1 -10 -4 -10 -6 0 -11 5 -11 10 0 6 2 10 4 10 3 0 8 -4 11 -10z
m-176 -37 c-1 -22 -2 -23 -6 -8 -3 11 -10 23 -17 27 -7 5 -5 8 7 8 12 0 17 -7
16 -27z m-521 5 c35 -9 47 -9 50 0 6 19 22 3 22 -23 0 -25 -19 -38 -40 -25 -7
4 -44 7 -81 5 -38 -1 -69 2 -69 6 0 5 9 9 20 9 13 0 20 7 20 20 0 23 13 25 78
8z m447 2 c3 -5 -3 -10 -14 -10 -12 0 -21 5 -21 10 0 6 6 10 14 10 8 0 18 -4
21 -10z m133 -6 c12 -4 22 -14 23 -23 0 -12 2 -11 9 4 5 11 9 15 9 8 1 -6 10
-9 21 -6 11 3 20 0 20 -6 0 -6 -6 -11 -12 -11 -9 0 -8 -4 2 -10 9 -6 10 -10 3
-10 -6 0 -14 4 -17 9 -3 5 -15 7 -25 4 -13 -3 -23 3 -31 18 -12 22 -13 22 -26
4 -13 -18 -14 -18 -14 3 0 24 3 25 38 16z m-956 -28 c25 -8 59 -13 75 -11 15
1 33 0 38 -3 6 -4 21 -8 35 -9 88 -8 110 -18 83 -39 -22 -16 -57 -18 -84 -3
-11 5 -61 12 -112 13 -51 2 -95 4 -99 5 -10 1 -10 45 -1 54 9 9 11 9 65 -7z
m518 -3 c0 -15 2 -16 10 -3 8 12 10 10 10 -9 0 -17 -4 -22 -16 -17 -9 3 -18 6
-20 6 -2 0 -4 9 -4 20 0 11 5 20 10 20 6 0 10 -8 10 -17z m60 -3 c-10 -6 -11
-10 -2 -10 6 0 12 -4 12 -10 0 -20 -36 -10 -37 10 -1 14 4 20 20 20 18 0 19
-2 7 -10z m-90 -10 c0 -5 -4 -10 -9 -10 -6 0 -13 5 -16 10 -3 6 1 10 9 10 9 0
16 -4 16 -10z m148 -14 c3 -13 -1 -17 -14 -14 -11 2 -20 11 -22 22 -3 13 1 17
14 14 11 -2 20 -11 22 -22z m89 1 c13 5 12 1 -2 -20 -9 -15 -25 -27 -34 -27
-13 0 -13 2 -2 9 9 6 11 17 6 32 -6 19 -5 21 5 12 7 -6 19 -9 27 -6z m99 -34
c-8 -8 -36 5 -36 17 0 7 6 7 21 0 11 -7 18 -14 15 -17z m75 20 c-8 -3 -9 -8
-3 -12 6 -4 5 -11 -4 -19 -12 -11 -14 -9 -14 13 0 17 5 25 18 24 12 0 13 -2 3
-6z m-499 -19 c9 -3 19 0 23 6 10 16 25 2 25 -24 0 -23 -2 -24 -95 -22 -52 0
-95 5 -95 9 0 4 8 7 17 5 10 -2 18 4 19 12 0 8 2 19 2 23 2 8 63 2 104 -9z
m588 -9 c0 -14 -3 -25 -7 -25 -5 0 -8 11 -8 25 0 14 3 25 8 25 4 0 7 -11 7
-25z m-323 9 c-3 -3 -12 -4 -19 -1 -8 3 -5 6 6 6 11 1 17 -2 13 -5z m291 -18
c3 -13 -2 -17 -14 -14 -25 4 -31 37 -7 34 10 -2 20 -11 21 -20z m499 -38 c-2
-13 -4 -3 -4 22 0 25 2 35 4 23 2 -13 2 -33 0 -45z m-417 32 c0 -11 -6 -20
-13 -20 -7 0 -13 9 -14 20 -1 11 4 20 13 20 8 0 14 -9 14 -20z m-519 -7 c0
-15 2 -15 9 2 8 17 9 16 9 -9 1 -22 -3 -27 -15 -22 -9 3 -18 6 -20 6 -2 0 -4
9 -4 20 0 25 20 27 21 3z m564 7 c3 -5 -2 -10 -12 -11 -16 0 -16 -1 2 -10 20
-9 20 -9 0 -6 -23 3 -34 37 -11 37 8 0 18 -4 21 -10z m-495 -9 c0 -4 11 -6 25
-3 15 2 25 0 25 -7 0 -6 -8 -11 -17 -12 -15 0 -15 -2 2 -9 16 -7 17 -9 3 -9
-9 -1 -19 3 -22 8 -3 4 -18 6 -33 4 -27 -5 -27 -5 -8 11 16 13 17 15 3 10 -10
-3 -18 -1 -18 5 0 6 9 11 20 11 11 0 20 -4 20 -9z m1077 -19 c2 -14 -2 -22
-12 -22 -9 0 -15 10 -15 26 0 31 22 28 27 -4z m-1182 8 c3 -5 -1 -10 -9 -10
-9 0 -16 5 -16 10 0 6 4 10 9 10 6 0 13 -4 16 -10z m-315 -12 c38 -7 70 -15
70 -18 -1 -22 -23 -30 -86 -31 -72 -1 -114 11 -114 35 0 30 23 32 130 14z
m557 -8 c-1 -11 -7 -20 -14 -20 -6 0 -11 9 -10 20 1 11 7 20 14 20 6 0 11 -9
10 -20z m175 -21 c5 -3 3 -9 -6 -12 -12 -5 -16 0 -15 21 0 16 3 21 6 12 3 -8
10 -18 15 -21z m-569 -5 c-1 -10 4 -22 10 -26 7 -5 3 -8 -10 -8 -15 0 -23 6
-23 18 -1 16 -1 16 -11 0 -13 -24 -36 -23 -49 2 -9 17 -7 20 17 26 16 3 33 7
38 9 19 6 30 -2 28 -21z m58 -12 c1 -19 3 -21 6 -8 4 14 11 17 35 12 17 -3 39
-6 49 -6 12 0 19 -7 19 -20 0 -25 -20 -27 -21 -2 -1 13 -2 13 -5 2 -4 -12 -17
-14 -58 -12 -50 4 -54 5 -54 30 0 15 2 30 5 35 8 14 23 -4 24 -31z m424 28
c-3 -5 -10 -10 -16 -10 -5 0 -9 5 -9 10 0 6 7 10 16 10 8 0 12 -4 9 -10z m177
-20 c3 -17 0 -30 -6 -30 -6 0 -11 14 -11 30 0 17 3 30 6 30 4 0 9 -13 11 -30z
m-34 -3 c2 -12 -3 -17 -17 -17 -12 0 -21 5 -21 10 0 6 6 10 13 10 8 0 7 4 -3
11 -12 8 -12 10 5 7 11 -2 21 -11 23 -21z m-275 6 c-7 -2 -21 -2 -30 0 -10 3
-4 5 12 5 17 0 24 -2 18 -5z m357 -17 c0 -7 -6 -13 -14 -13 -11 0 -13 9 -7 35
2 9 21 -11 21 -22z m45 -6 c0 -22 -29 -18 -33 3 -3 14 1 18 15 15 10 -2 18
-10 18 -18z m-1081 -7 c10 -10 30 -14 131 -24 120 -13 126 -16 96 -40 -28 -23
-47 -24 -94 -4 -25 10 -60 14 -109 12 -40 -2 -79 -2 -85 1 -14 4 -18 44 -6 55
8 9 58 9 67 0z m721 -3 c3 -5 -1 -10 -9 -10 -9 0 -16 5 -16 10 0 6 4 10 9 10
6 0 13 -4 16 -10z m-135 -10 c0 -5 -9 -10 -21 -10 -11 0 -17 5 -14 10 3 6 13
10 21 10 8 0 14 -4 14 -10z m37 4 c-3 -3 -12 -4 -19 -1 -8 3 -5 6 6 6 11 1 17
-2 13 -5z m152 -33 c-1 -17 -3 -20 -6 -8 -5 20 -19 23 -26 5 -7 -21 -19 -1
-13 20 10 31 46 17 45 -17z m36 4 c0 -14 -5 -25 -11 -25 -7 0 -9 10 -6 25 2
14 7 25 11 25 3 0 6 -11 6 -25z m44 16 c7 -5 10 -14 7 -20 -4 -6 -12 -8 -18
-5 -7 4 -8 2 -4 -4 4 -7 2 -12 -3 -12 -6 0 -11 11 -11 25 0 27 6 30 29 16z
m52 -23 c1 -18 2 -19 6 -5 7 27 77 19 81 -10 3 -19 -1 -21 -44 -18 -26 1 -50
9 -55 16 -6 10 -9 11 -9 2 0 -7 -7 -13 -15 -13 -8 0 -15 5 -15 11 0 5 5 7 10
4 6 -3 10 3 10 14 0 29 30 27 31 -1z m-511 -11 c45 -2 50 -4 50 -25 0 -23 -2
-23 -71 -17 -49 4 -76 2 -86 -6 -10 -9 -17 -9 -25 -1 -9 9 -7 12 10 12 17 0
22 6 22 25 0 22 3 25 25 19 13 -3 47 -7 75 -7z m675 -1 c10 4 12 0 8 -15 -5
-21 -23 -30 -23 -12 0 5 -2 15 -3 23 -2 7 -2 10 0 6 2 -4 10 -5 18 -2z m52 -2
c-3 -3 -12 -4 -19 -1 -8 3 -5 6 6 6 11 1 17 -2 13 -5z m-606 -31 c0 -15 2 -15
7 -3 5 12 15 14 37 9 27 -6 17 -14 -12 -10 -7 1 -13 -5 -13 -13 0 -9 -7 -12
-20 -9 -11 3 -20 14 -20 24 0 24 20 25 21 2z m115 -5 c4 -6 2 -14 -5 -16 -11
-4 -11 -6 0 -13 8 -5 10 -9 4 -9 -21 0 -38 19 -32 34 7 19 23 21 33 4z m-631
-8 c4 -6 11 -8 16 -5 5 4 14 3 20 -1 7 -4 53 -9 103 -11 98 -4 122 -14 90 -38
-23 -17 -58 -19 -86 -4 -12 6 -63 11 -115 10 -97 -1 -114 7 -99 44 6 17 61 21
71 5z m480 0 c3 -5 -1 -10 -9 -10 -9 0 -16 5 -16 10 0 6 4 10 9 10 6 0 13 -4
16 -10z m105 -10 c0 -5 -7 -10 -16 -10 -8 0 -12 5 -9 10 3 6 10 10 16 10 5 0
9 -4 9 -10z m143 -9 c-3 -12 -11 -17 -23 -14 -23 6 -15 33 10 33 13 0 17 -6
13 -19z m78 -8 c13 -16 12 -17 -3 -4 -10 7 -18 15 -18 17 0 8 8 3 21 -13z m90
-13 c-3 -3 -9 -9 -13 -14 -5 -5 -8 3 -8 18 0 22 2 25 14 14 8 -7 11 -15 7 -18z
m91 0 c3 -17 0 -30 -6 -30 -6 0 -11 14 -11 30 0 17 3 30 6 30 4 0 9 -13 11
-30z m-34 -3 c2 -12 -3 -17 -17 -17 -12 0 -21 5 -21 10 0 6 5 10 11 10 5 0 7
5 3 11 -4 7 -1 10 7 7 8 -3 15 -12 17 -21z m82 -19 c0 -5 -6 -8 -14 -8 -8 0
-13 8 -11 18 2 9 4 19 4 22 2 7 21 -23 21 -32z m-590 -7 c0 -23 -1 -24 -75
-18 -46 4 -75 3 -75 -3 0 -6 -9 -10 -20 -10 -11 0 -20 5 -20 10 0 6 9 10 21
10 14 0 19 5 16 14 -9 22 1 25 79 23 71 -2 74 -3 74 -26z m233 22 c-7 -2 -19
-2 -25 0 -7 3 -2 5 12 5 14 0 19 -2 13 -5z m402 -3 c3 -5 -2 -10 -12 -10 -15
0 -16 -2 -3 -11 13 -9 13 -10 0 -6 -20 5 -26 37 -6 37 8 0 18 -4 21 -10z
m-564 -27 c0 -15 2 -15 9 2 8 19 9 19 9 -2 1 -17 -5 -23 -19 -23 -13 0 -20 7
-20 20 0 25 20 27 21 3z m66 -13 c1 -12 -4 -20 -14 -20 -9 0 -13 3 -10 7 4 3
2 12 -4 20 -9 10 -7 13 8 13 12 0 19 -8 20 -20z m49 9 c3 -6 0 -15 -7 -20 -22
-14 -29 -11 -29 11 0 21 24 27 36 9z m-546 -24 c13 2 27 2 33 -2 6 -3 35 -7
64 -8 63 -3 74 -10 47 -30 -20 -15 -76 -20 -88 -7 -4 4 -53 7 -109 7 -100 0
-102 0 -105 24 -5 34 13 40 78 25 32 -7 68 -11 80 -9z m390 15 c0 -5 -4 -10
-10 -10 -5 0 -10 5 -10 10 0 6 5 10 10 10 6 0 10 -4 10 -10z m247 -3 c13 5 12
1 -2 -20 -10 -17 -26 -27 -39 -26 -18 1 -18 2 -3 6 15 4 17 11 12 31 -5 21 -4
24 6 15 6 -6 18 -9 26 -6z m175 -24 c-5 -23 -7 -25 -10 -8 -2 11 -9 23 -16 27
-6 5 -3 8 10 8 18 0 20 -4 16 -27z m-82 7 c0 -5 -7 -10 -15 -10 -8 0 -15 5
-15 10 0 6 7 10 15 10 8 0 15 -4 15 -10z m154 -16 c9 -8 16 -12 16 -7 0 13 48
14 56 1 5 -8 2 -9 -9 -5 -10 3 -17 2 -17 -2 0 -5 6 -12 13 -14 9 -4 9 -6 0 -6
-6 -1 -14 3 -17 8 -3 5 -14 7 -24 4 -10 -2 -24 3 -31 11 -15 17 -36 22 -26 6
3 -5 1 -10 -4 -10 -6 0 -11 7 -11 15 0 20 34 19 54 -1z m-569 -15 c6 -1 18 2
28 6 16 7 18 4 15 -19 l-3 -28 -97 -2 c-53 -1 -95 1 -92 6 3 4 14 8 25 8 10 0
18 3 18 8 -5 29 2 33 49 28 26 -4 52 -7 57 -7z m116 -26 c0 -15 2 -15 9 2 8
19 9 19 9 -2 1 -17 -5 -23 -19 -23 -13 0 -20 7 -20 20 0 25 20 27 21 3z m66
-13 c1 -12 -4 -20 -14 -20 -9 0 -13 3 -10 7 4 3 2 12 -4 20 -9 10 -7 13 8 13
12 0 19 -8 20 -20z m49 9 c3 -6 0 -15 -7 -20 -22 -14 -29 -11 -29 11 0 21 24
27 36 9z m-156 -9 c0 -5 -4 -10 -10 -10 -5 0 -10 5 -10 10 0 6 5 10 10 10 6 0
10 -4 10 -10z m250 6 c0 -2 -3 -11 -6 -20 -9 -23 -23 -20 -21 4 1 11 7 20 14
20 7 0 13 -2 13 -4z m171 -13 c-8 -3 -9 -8 -3 -12 6 -4 5 -11 -4 -19 -12 -11
-14 -9 -14 13 0 17 5 25 18 24 12 0 13 -2 3 -6z m91 -23 c3 -17 0 -30 -6 -30
-6 0 -11 14 -11 30 0 17 3 30 6 30 4 0 9 -13 11 -30z m-162 10 c0 -5 -9 -10
-21 -10 -11 0 -17 5 -14 10 3 6 13 10 21 10 8 0 14 -4 14 -10z m130 -16 c0 -8
-9 -14 -20 -14 -11 0 -20 5 -20 10 0 6 5 10 11 10 5 0 7 4 4 10 -3 6 1 7 9 4
9 -3 16 -12 16 -20z m-721 1 c15 -15 -32 -37 -85 -40 -82 -4 -135 20 -106 49
7 9 182 0 191 -9z m801 11 c0 -2 -7 -6 -15 -10 -8 -3 -15 -1 -15 4 0 6 7 10
15 10 8 0 15 -2 15 -4z m-703 -38 c2 -30 -14 -38 -24 -12 -5 15 -7 15 -15 0
-12 -22 -35 -20 -48 3 -13 25 4 36 52 36 28 0 33 -3 35 -27z m53 5 c0 -24 1
-25 13 -10 10 15 20 16 52 9 25 -5 41 -14 43 -25 2 -9 -1 -17 -7 -17 -6 0 -11
8 -12 18 0 14 -2 14 -7 2 -4 -8 -16 -15 -27 -14 -11 1 -34 2 -52 3 -29 1 -31
4 -29 29 4 33 4 32 16 32 6 0 10 -12 10 -27z m695 17 c3 -5 0 -10 -7 -10 -10
0 -9 -3 2 -11 12 -8 12 -10 -5 -7 -23 4 -34 38 -11 38 8 0 18 -4 21 -10z m-45
-10 c0 -5 -7 -10 -16 -10 -8 0 -12 5 -9 10 3 6 10 10 16 10 5 0 9 -4 9 -10z
m-310 -26 c0 -2 -7 -4 -15 -4 -8 0 -15 4 -15 10 0 5 7 7 15 4 8 -4 15 -8 15
-10z m50 -24 c0 -20 -2 -22 -10 -10 -9 13 -11 13 -19 0 -13 -19 -22 -10 -15
16 8 30 44 26 44 -6z m-140 10 c0 -5 -9 -10 -21 -10 -11 0 -17 5 -14 10 3 6
13 10 21 10 8 0 14 -4 14 -10z m175 -15 c0 -14 -5 -25 -11 -25 -7 0 -9 10 -6
25 2 14 7 25 11 25 3 0 6 -11 6 -25z m52 -4 c3 -21 1 -22 -14 -10 -11 9 -14
10 -9 2 4 -7 2 -13 -3 -13 -6 0 -11 12 -11 26 0 33 31 29 37 -5z m41 -2 c2
-17 0 -20 -6 -10 -8 11 -10 11 -15 0 -3 -8 -6 -1 -6 14 -1 35 23 32 27 -4z
m-864 3 c6 -3 50 -7 99 -9 103 -3 115 -8 90 -35 -14 -16 -25 -18 -53 -13 -19
4 -82 8 -140 9 -92 1 -105 3 -108 19 -8 40 5 50 56 42 26 -4 51 -10 56 -13z
m954 -8 c3 -18 -2 -21 -35 -20 -32 1 -39 5 -41 24 -3 20 0 22 35 20 30 -3 39
-8 41 -24z m82 -3 c-7 -14 -6 -21 3 -24 6 -3 2 -6 -11 -6 -19 -1 -21 2 -12 18
7 14 6 21 -3 24 -6 3 -2 6 11 6 19 1 21 -2 12 -18z m50 9 c0 -5 -7 -10 -15
-10 -8 0 -15 5 -15 10 0 6 7 10 15 10 8 0 15 -4 15 -10z m-725 -33 c6 0 18 4
28 8 16 7 18 3 15 -21 l-3 -29 -79 4 c-56 2 -77 0 -72 -8 4 -7 -1 -11 -13 -11
-27 0 -27 16 -1 23 11 3 20 9 19 14 -5 30 2 34 49 27 26 -4 52 -7 57 -7z m116
-24 c0 -15 2 -15 9 2 8 19 9 19 9 -2 1 -17 -5 -23 -19 -23 -13 0 -20 7 -20 20
0 25 20 27 21 3z m512 10 c-7 -2 -19 -2 -25 0 -7 3 -2 5 12 5 14 0 19 -2 13
-5z m-447 -20 c-2 -9 -9 -19 -17 -21 -8 -3 -11 -1 -7 3 4 5 3 14 -3 22 -9 10
-7 13 9 13 13 0 19 -6 18 -17z m54 6 c0 -6 -7 -9 -15 -5 -8 3 -15 1 -15 -4 0
-5 8 -11 18 -13 13 -4 11 -5 -5 -6 -17 -1 -23 5 -23 19 0 13 7 20 20 20 11 0
20 -5 20 -11z m-150 -9 c0 -5 -7 -10 -15 -10 -8 0 -15 5 -15 10 0 6 7 10 15
10 8 0 15 -4 15 -10z m246 -11 c0 -23 -10 -24 -30 -3 -21 20 -20 22 7 22 16 0
23 -6 23 -19z m165 14 c-8 -3 -9 -8 -3 -12 6 -4 5 -11 -4 -19 -12 -11 -14 -9
-14 13 0 17 5 25 18 24 12 0 13 -2 3 -6z m91 -23 c3 -17 0 -30 -6 -30 -6 0
-11 14 -11 30 0 17 3 30 6 30 4 0 9 -13 11 -30z m-177 10 c-3 -5 -10 -10 -16
-10 -5 0 -9 5 -9 10 0 6 7 10 16 10 8 0 12 -4 9 -10z m-777 -12 c17 -1 32 -6
32 -11 0 -5 6 -4 13 2 8 6 16 9 19 6 2 -3 35 -6 72 -7 72 -2 89 -11 60 -33
-21 -16 -80 -20 -88 -6 -3 5 -51 7 -106 5 -83 -4 -101 -2 -106 11 -12 31 4 48
39 41 17 -4 47 -7 65 -8z m922 -3 c0 -8 -9 -15 -20 -15 -22 0 -27 15 -7 23 21
9 27 7 27 -8z m77 -5 c1 -11 -4 -20 -10 -20 -7 0 -13 9 -14 20 -1 11 4 20 10
20 7 0 13 -9 14 -20z m3067 -11 c22 -11 43 -24 46 -28 3 -4 33 -15 68 -26 34
-10 62 -22 62 -27 0 -4 6 -8 14 -8 22 0 41 -66 24 -83 -38 -36 -71 -49 -112
-43 -22 4 -84 10 -136 14 -52 4 -106 14 -120 21 -48 27 -60 30 -156 47 -101
17 -165 40 -202 72 l-22 19 28 13 c25 12 26 13 7 20 -25 9 75 20 250 27 72 2
132 7 135 10 9 9 72 -6 114 -28z m-3014 11 c0 -5 -5 -10 -11 -10 -5 0 -7 -4
-4 -10 3 -6 -1 -7 -9 -4 -23 9 -20 34 4 34 11 0 20 -4 20 -10z m-407 -7 c-7
-2 -21 -2 -30 0 -10 3 -4 5 12 5 17 0 24 -2 18 -5z m-283 -16 c8 0 23 3 33 8
14 6 17 2 17 -24 l0 -30 -75 5 c-51 4 -75 3 -75 -5 0 -6 -9 -11 -20 -11 -11 0
-20 5 -20 10 0 6 9 10 21 10 15 0 19 4 15 16 -11 27 4 36 48 28 22 -4 48 -7
56 -7z m121 -24 c0 -15 2 -15 9 2 8 19 9 19 9 -2 1 -17 -5 -23 -19 -23 -13 0
-20 7 -20 20 0 25 20 27 21 3z m64 -13 c-3 -20 -27 -19 -31 2 -1 11 4 16 16
15 10 0 17 -8 15 -17z m55 10 c0 -5 -8 -10 -17 -11 -16 0 -15 -2 2 -10 20 -9
20 -9 0 -6 -28 3 -33 37 -6 37 12 0 21 -4 21 -10z m87 -3 c13 5 12 1 -2 -20
-14 -22 -24 -27 -54 -25 l-36 1 33 4 c31 4 33 7 27 31 -5 21 -4 24 6 15 6 -6
18 -9 26 -6z m-242 -7 c3 -5 -1 -10 -9 -10 -9 0 -16 5 -16 10 0 6 4 10 9 10 6
0 13 -4 16 -10z m416 -20 c-3 -3 -9 -9 -13 -14 -5 -5 -8 3 -8 18 0 22 2 25 14
14 8 -7 11 -15 7 -18z m91 5 c3 -15 1 -25 -6 -25 -6 0 -11 11 -11 25 0 14 3
25 6 25 4 0 9 -11 11 -25z m-162 5 c0 -5 -9 -10 -20 -10 -11 0 -20 5 -20 10 0
6 9 10 20 10 11 0 20 -4 20 -10z m128 -13 c2 -12 -3 -17 -17 -17 -12 0 -21 5
-21 10 0 6 6 10 13 10 8 0 7 4 -3 11 -12 8 -12 10 5 7 11 -2 21 -11 23 -21z
m79 -7 c1 -11 -3 -20 -8 -20 -6 0 -7 5 -4 10 3 6 1 10 -4 10 -6 0 -11 5 -11
10 0 19 26 10 27 -10z m48 10 c3 -5 -2 -10 -12 -10 -15 0 -16 -2 -3 -11 13 -9
13 -10 0 -6 -20 5 -26 37 -6 37 8 0 18 -4 21 -10z m-947 -14 c51 -2 96 -6 99
-10 3 -3 -2 -15 -12 -26 -20 -22 -60 -27 -71 -9 -4 7 -43 10 -113 7 l-106 -3
-3 29 -4 29 59 -7 c32 -4 100 -9 151 -10z m284 -15 c25 14 28 12 28 -21 l0
-30 -69 5 c-42 3 -72 1 -76 -5 -8 -13 -42 -13 -51 1 -4 7 2 9 17 7 16 -2 24 2
24 12 1 31 13 37 62 30 26 -4 56 -4 65 1z m99 -28 c0 -15 2 -15 9 2 8 19 9 19
9 -2 1 -17 -5 -23 -19 -23 -13 0 -20 7 -20 20 0 25 20 27 21 3z m66 1 c3 -8 1
-20 -6 -27 -8 -8 -11 -8 -11 2 0 7 -4 10 -9 7 -7 -5 -8 11 -2 32 3 9 23 -1 28
-14z m53 -4 c0 -5 -8 -10 -17 -11 -16 0 -15 -2 2 -10 20 -9 20 -9 0 -6 -28 3
-33 37 -6 37 12 0 21 -4 21 -10z m90 6 c0 -2 -3 -11 -6 -20 -9 -23 -23 -20
-21 4 1 11 7 20 14 20 7 0 13 -2 13 -4z m172 -23 c-5 -23 -7 -25 -10 -8 -2 11
-9 23 -16 27 -6 5 -3 8 10 8 18 0 20 -4 16 -27z m-417 7 c3 -5 -1 -10 -9 -10
-9 0 -16 5 -16 10 0 6 4 10 9 10 6 0 13 -4 16 -10z m345 -16 c0 -2 -9 -4 -21
-4 -11 0 -18 4 -14 10 5 8 35 3 35 -6z m151 -1 c1 -16 2 -15 6 1 4 15 7 16 14
5 6 -10 9 -10 9 -1 0 6 7 12 15 12 8 0 15 -5 15 -11 0 -5 -4 -7 -10 -4 -5 3
-10 2 -10 -4 0 -5 6 -11 13 -14 6 -2 -5 -5 -26 -5 -24 0 -40 5 -44 14 -3 8
-12 14 -20 14 -8 0 -11 -4 -8 -10 3 -5 1 -10 -4 -10 -6 0 -11 7 -11 15 0 23
60 20 61 -2z m-298 -20 c-7 -2 -19 -2 -25 0 -7 3 -2 5 12 5 14 0 19 -2 13 -5z
m-349 -126 c4 -19 3 -26 -4 -22 -5 3 -10 18 -10 32 0 32 5 28 14 -10z m-54 7
c0 -8 -4 -12 -10 -9 -5 3 -10 10 -10 16 0 5 5 9 10 9 6 0 10 -7 10 -16z m300
-4 c-7 -4 -9 -13 -6 -19 4 -6 3 -11 -2 -11 -11 0 -23 36 -15 44 3 2 12 2 20
-1 11 -4 12 -8 3 -13z m-212 0 c-2 -5 2 -9 7 -7 6 1 9 6 7 11 -2 5 4 4 12 -4
11 -8 16 -9 16 -1 0 14 27 15 35 1 3 -5 3 -15 -1 -22 -5 -8 -10 -6 -15 8 -5
14 -8 15 -8 3 -1 -11 -10 -15 -32 -13 -35 2 -44 8 -34 23 8 14 16 14 13 1z
m171 -12 c0 -16 -2 -18 -6 -8 -3 8 -11 18 -17 22 -7 5 -4 8 7 8 11 0 17 -7 16
-22z m133 -3 c3 -13 1 -22 -3 -19 -9 5 -13 44 -5 44 2 0 6 -11 8 -25z m57 -9
c0 -20 -1 -20 -9 -1 -6 13 -9 15 -9 5 -1 -13 -3 -13 -10 0 -12 18 -5 31 14 23
8 -3 15 -15 14 -27z m46 14 c3 -6 -1 -7 -9 -4 -9 3 -16 2 -16 -4 0 -6 6 -13
13 -15 9 -4 9 -6 0 -6 -15 -1 -26 16 -18 29 8 13 22 13 30 0z m185 -10 c0 -11
-4 -20 -9 -20 -7 0 -8 17 -2 38 4 10 11 -2 11 -18z m170 -5 c0 -17 -5 -25 -17
-24 -11 0 -13 3 -5 6 6 2 12 13 12 24 0 10 2 19 5 19 3 0 5 -11 5 -25z m37
-12 c-3 -10 -5 -4 -5 12 0 17 2 24 5 18 2 -7 2 -21 0 -30z m-647 17 c0 -5 -5
-10 -11 -10 -5 0 -7 5 -4 10 3 6 8 10 11 10 2 0 4 -4 4 -10z m330 -11 c0 -6
-4 -7 -10 -4 -5 3 -10 11 -10 16 0 6 5 7 10 4 6 -3 10 -11 10 -16z m37 -1 c-3
-8 -6 -5 -6 6 -1 11 2 17 5 13 3 -3 4 -12 1 -19z m20 0 c-3 -8 -6 -5 -6 6 -1
11 2 17 5 13 3 -3 4 -12 1 -19z m20 0 c-3 -8 -6 -5 -6 6 -1 11 2 17 5 13 3 -3
4 -12 1 -19z m161 -1 c3 -12 -3 -17 -20 -17 -22 1 -22 1 -5 14 11 9 14 16 7
19 -6 3 -5 4 2 3 7 -1 14 -10 16 -19z m155 4 c-4 -3 -11 -10 -15 -15 -5 -5 -8
0 -8 12 0 15 4 20 16 15 9 -3 12 -9 7 -12z m124 -16 c0 -7 -6 -12 -14 -12 -7
0 -13 11 -13 24 0 19 2 21 13 11 8 -7 14 -17 14 -23z m-220 3 c-3 -8 -6 -5 -6
6 -1 11 2 17 5 13 3 -3 4 -12 1 -19z m143 2 c0 -22 -15 -27 -26 -8 -5 7 -3 8
6 3 10 -6 12 -4 7 8 -3 10 -2 17 3 17 6 0 10 -9 10 -20z m24 9 c-3 -6 0 -15 7
-20 9 -6 10 -9 2 -9 -15 0 -26 17 -18 30 3 6 8 10 11 10 3 0 2 -5 -2 -11z
m123 -21 c-3 -7 -5 -2 -5 12 0 14 2 19 5 13 2 -7 2 -19 0 -25z m53 3 c0 -13
-2 -13 -9 -2 -7 11 -9 11 -14 0 -3 -8 -6 -5 -6 8 -1 16 3 21 14 17 8 -4 15
-14 15 -23z m36 7 c5 -7 3 -8 -6 -3 -10 6 -12 4 -7 -9 4 -10 3 -15 -3 -11 -13
8 -13 35 -1 35 6 0 13 -5 17 -12z m-1723 -15 c15 -8 6 -35 -13 -40 -22 -6 -27
-31 -7 -38 6 -3 30 -6 53 -8 23 -2 46 -7 52 -11 5 -3 17 -3 26 0 9 3 23 1 30
-5 8 -7 17 -8 20 -3 3 5 22 8 43 6 21 -2 57 -3 81 -3 31 -1 42 -5 42 -16 0 -9
-7 -18 -16 -22 -19 -7 -93 -8 -119 0 -11 3 -24 6 -30 8 -5 1 -19 -2 -29 -6
-13 -6 -21 -5 -24 3 -2 7 -9 8 -20 2 -9 -5 -33 -11 -52 -15 -19 -3 -41 -9 -49
-14 -18 -12 -5 -31 22 -31 29 -1 57 -23 57 -44 0 -10 -5 -14 -10 -11 -6 4 -17
2 -24 -4 -7 -6 -35 -9 -62 -8 -49 2 -49 2 -49 37 -1 19 -5 43 -10 54 -5 11 -4
26 3 37 9 14 9 25 0 44 -10 22 -9 28 2 35 8 5 15 15 16 22 0 7 2 21 2 31 2 14
8 16 30 11 15 -4 30 -9 35 -11z m1792 -12 c-6 -5 -25 10 -25 20 0 5 6 4 14 -3
8 -7 12 -15 11 -17z m43 17 c-2 -5 -8 -9 -13 -9 -5 0 -11 4 -13 9 -1 5 4 9 13
9 9 0 14 -4 13 -9z m36 -3 c3 -8 1 -15 -3 -15 -5 0 -11 7 -15 15 -3 8 -1 15 3
15 5 0 11 -7 15 -15z m36 6 c0 -6 -4 -13 -10 -16 -5 -3 -10 1 -10 9 0 9 5 16
10 16 6 0 10 -4 10 -9z m-1522 -26 c11 -14 24 -24 29 -23 4 2 9 -1 11 -7 1 -6
-27 -10 -68 -11 -57 0 -70 3 -70 15 0 23 12 38 35 44 37 9 43 7 63 -18z m1592
15 c0 -5 -4 -10 -10 -10 -5 0 -10 5 -10 10 0 6 5 10 10 10 6 0 10 -4 10 -10z
m-1782 -5 c12 -3 22 -12 22 -20 0 -17 -28 -24 -82 -22 -28 1 -38 5 -38 17 0 9
2 19 4 21 7 7 70 10 94 4z m393 -22 c1 -16 3 -21 6 -11 3 13 16 17 51 17 26 1
54 2 62 3 24 3 80 -14 80 -23 0 -12 -27 -11 -35 1 -10 16 -28 12 -21 -5 3 -9
0 -15 -9 -15 -8 0 -15 7 -15 15 0 8 -9 15 -20 15 -25 0 -26 -17 -2 -23 13 -4
12 -5 -5 -6 -12 0 -25 4 -28 9 -3 6 -11 10 -16 10 -6 0 -7 -4 -4 -10 4 -6 -9
-10 -33 -10 -37 0 -39 2 -38 30 1 38 26 40 27 3z m-521 7 c0 -5 -5 -10 -11
-10 -5 0 -7 5 -4 10 3 6 8 10 11 10 2 0 4 -4 4 -10z m474 -8 c-1 -6 -2 -16 -2
-21 -3 -13 -75 -10 -84 3 -17 25 -7 33 40 32 31 -1 47 -5 46 -14z m338 -17 c3
-14 1 -25 -4 -25 -10 0 -28 42 -21 53 7 13 20 -1 25 -28z m-397 -59 c33 -24
12 -46 -45 -46 -48 0 -51 2 -48 22 2 16 12 25 33 29 17 4 33 7 36 8 3 0 14 -5
24 -13z m205 -17 c5 -21 7 -22 13 -5 5 12 14 17 27 13 11 -3 35 -2 54 3 19 4
40 4 47 -1 12 -7 12 -9 0 -9 -7 0 -11 -6 -7 -15 3 -8 1 -15 -4 -15 -6 0 -10 7
-10 15 0 8 -9 15 -20 15 -21 0 -28 -19 -7 -21 9 0 9 -2 0 -5 -6 -3 -23 2 -37
12 -14 9 -26 12 -26 6 0 -6 6 -13 13 -15 6 -3 -6 -6 -28 -6 -38 -1 -40 1 -40
29 0 35 17 35 25 -1z m230 -4 c0 -14 -4 -25 -10 -25 -5 0 -7 7 -4 15 4 8 1 15
-5 15 -6 0 -11 -4 -11 -10 0 -5 -9 -10 -20 -10 -11 0 -20 5 -20 10 0 6 9 10
19 10 11 0 23 5 26 10 11 18 25 10 25 -15z m-330 3 c0 -9 3 -9 12 0 15 15 48
16 48 2 0 -5 -6 -10 -12 -10 -9 0 -8 -4 2 -10 11 -7 2 -10 -31 -10 -38 0 -48
4 -52 20 -4 15 0 20 14 20 10 0 19 -5 19 -12z m-50 -18 c0 -5 -7 -10 -15 -10
-8 0 -15 5 -15 10 0 6 7 10 15 10 8 0 15 -4 15 -10z m-206 -48 c4 -8 71 -7
131 1 14 1 20 -5 21 -25 l3 -27 -165 1 c-90 0 -166 4 -169 7 -14 23 28 35 162
50 6 0 14 -3 17 -7z m585 -11 c9 -6 22 -6 33 0 15 8 18 6 18 -16 0 -14 0 -28
1 -32 0 -5 -8 -9 -18 -10 -10 -2 -12 0 -5 3 14 6 17 44 3 44 -5 0 -12 -7 -15
-16 -8 -21 -91 -16 -91 6 0 9 9 15 23 14 12 0 22 3 22 8 0 10 11 10 29 -1z
m186 -21 c1 -11 -4 -20 -12 -20 -13 0 -18 31 -6 43 9 10 16 0 18 -23z m257 5
c3 -14 1 -25 -3 -25 -5 0 -9 11 -9 25 0 14 2 25 4 25 2 0 6 -11 8 -25z m-772
4 c0 -8 4 -8 13 -1 17 14 137 13 137 -1 0 -7 4 -7 12 1 15 15 38 16 38 1 0 -5
-4 -7 -10 -4 -5 3 -10 2 -10 -4 0 -5 6 -12 13 -14 6 -3 -3 -6 -20 -6 -25 -1
-33 3 -34 17 -1 16 -2 16 -6 0 -5 -21 -23 -24 -24 -5 0 10 -2 10 -6 0 -7 -18
-32 -16 -39 2 -4 8 -12 15 -20 15 -17 0 -18 -17 -1 -23 6 -2 -7 -4 -30 -5 -38
-1 -62 16 -46 32 11 10 33 7 33 -5z m462 -11 c-3 -13 -8 -15 -16 -9 -7 6 -18
6 -26 1 -19 -12 -34 -1 -21 14 6 7 24 13 39 13 24 0 28 -4 24 -19z m93 12 c-3
-5 -1 -10 4 -10 6 0 11 -4 11 -9 0 -6 -9 -9 -19 -8 -20 1 -23 17 -6 29 14 11
17 10 10 -2z m175 -16 c0 -14 -4 -23 -10 -19 -5 3 -10 15 -10 26 0 10 5 19 10
19 6 0 10 -12 10 -26z m370 3 c0 -22 -4 -24 -55 -23 -46 1 -55 4 -55 19 0 15
7 18 45 16 24 -2 48 0 51 4 12 11 14 8 14 -16z m32 -2 c3 -15 1 -25 -7 -25 -9
0 -12 28 -6 48 3 9 9 -2 13 -23z m38 5 c0 -11 -4 -20 -10 -20 -5 0 -10 9 -10
20 0 11 5 20 10 20 6 0 10 -9 10 -20z m42 -5 c3 -15 1 -25 -6 -25 -6 0 -12 11
-12 25 -2 32 12 32 18 0z m186 12 c18 -21 0 -34 -53 -39 -27 -2 -42 -3 -32 -1
9 3 17 13 17 23 0 27 50 39 68 17z m-748 -12 c0 -8 -7 -15 -15 -15 -26 0 -18
20 13 29 1 1 2 -6 2 -14z m30 0 c0 -8 -4 -15 -10 -15 -5 0 -10 7 -10 15 0 8 5
15 10 15 6 0 10 -7 10 -15z m184 6 c3 -5 -3 -11 -14 -14 -11 -3 -20 0 -20 6 0
8 -4 7 -9 -2 -8 -13 -31 -8 -31 8 0 10 68 13 74 2z m426 -2 c0 -6 -4 -7 -10
-4 -5 3 -10 -2 -11 -12 0 -10 -3 -13 -6 -5 -2 6 -9 12 -14 12 -6 0 -7 -4 -4
-10 3 -5 2 -10 -4 -10 -13 0 -24 18 -17 28 7 12 66 13 66 1z m-1340 -9 c0 -5
-7 -10 -15 -10 -8 0 -15 5 -15 10 0 6 7 10 15 10 8 0 15 -4 15 -10z m-42 -63
c48 1 52 0 35 -12 -10 -9 -13 -14 -5 -15 6 0 12 -5 12 -10 0 -7 -6 -7 -18 -1
-11 6 -33 6 -57 1 -46 -10 -55 -6 -55 24 0 29 12 41 25 24 6 -8 29 -12 63 -11z
m242 11 c0 -4 -7 -8 -15 -8 -8 0 -15 4 -15 8 0 5 7 9 15 9 8 0 15 -4 15 -9z
m320 -3 c-6 -8 -9 -23 -5 -36 5 -14 4 -19 -4 -15 -12 8 -15 49 -4 59 13 14 25
7 13 -8z m262 -15 c4 -25 1 -30 -16 -30 -15 0 -17 3 -8 9 7 4 12 12 11 17 -2
14 0 34 5 34 2 0 6 -13 8 -30z m248 -12 c0 -9 -4 -19 -8 -22 -4 -2 -8 11 -8
30 0 20 3 29 8 21 4 -6 8 -20 8 -29z m37 -12 c-4 -9 -12 -16 -18 -16 -8 0 -8
4 1 15 6 8 9 24 6 37 l-6 23 11 -22 c6 -12 9 -29 6 -37z m-1218 28 c2 -2 1
-10 -2 -19 -8 -18 -72 -21 -84 -2 -19 30 -12 36 35 30 26 -3 49 -7 51 -9z
m241 3 c19 0 43 3 53 8 14 6 17 2 17 -19 0 -21 -5 -26 -25 -26 -14 0 -25 6
-26 13 0 10 -2 10 -6 0 -7 -18 -43 -16 -43 2 0 8 -5 15 -11 15 -6 0 -9 -7 -5
-15 3 -9 0 -15 -9 -15 -9 0 -15 10 -15 26 0 21 3 25 18 19 9 -4 33 -7 52 -8z
m345 3 c3 -5 1 -10 -5 -10 -7 0 -10 -7 -6 -15 3 -8 2 -15 -3 -15 -10 0 -21 37
-13 44 8 9 20 7 27 -4z m225 -13 c0 -22 -4 -24 -65 -25 -59 -2 -65 0 -65 19 0
18 5 20 55 18 30 -1 58 1 62 4 11 11 13 8 13 -16z m43 -7 c4 -14 0 -20 -12
-20 -15 0 -20 19 -12 48 3 9 19 -10 24 -28z m33 14 c-3 -9 -6 -21 -7 -27 0 -7
-4 -3 -8 8 -9 22 -5 35 11 35 5 0 7 -7 4 -16z m261 -17 c-2 -7 -19 -12 -38
-12 -25 0 -35 5 -37 19 -3 15 0 18 17 13 12 -3 21 -1 21 4 0 6 9 5 21 -1 11
-6 18 -17 16 -23z m153 13 c0 -12 -7 -20 -17 -20 -15 0 -16 2 -3 10 13 9 13
10 0 10 -13 0 -13 1 0 10 20 13 20 13 20 -10z m150 -2 c0 -18 -2 -20 -9 -8 -6
8 -7 18 -5 22 9 14 14 9 14 -14z m27 -15 c-3 -10 -5 -4 -5 12 0 17 2 24 5 18
2 -7 2 -21 0 -30z m43 21 c0 -8 -5 -12 -10 -9 -6 4 -8 11 -5 16 9 14 15 11 15
-7z m-1680 -16 c0 -14 -6 -18 -25 -15 -46 6 -46 35 0 35 18 0 25 -6 25 -20z
m596 -15 c-11 -11 -19 6 -11 24 8 17 8 17 12 0 3 -10 2 -21 -1 -24z m104 33
c0 -2 -7 -6 -15 -10 -8 -3 -15 -1 -15 4 0 6 7 10 15 10 8 0 15 -2 15 -4z m88
-3 c-10 -2 -18 -11 -18 -19 0 -8 -4 -14 -9 -14 -5 0 -7 9 -4 20 3 13 13 20 27
19 17 -1 17 -2 4 -6z m352 -4 c0 -5 -4 -7 -10 -4 -5 3 -10 2 -10 -4 0 -5 6
-12 13 -14 7 -3 5 -6 -5 -6 -12 -1 -18 6 -18 19 0 11 7 20 15 20 8 0 15 -5 15
-11z m38 4 c-9 -2 -19 -12 -21 -21 -3 -12 -5 -10 -6 6 -1 17 4 22 22 21 15 -1
17 -3 5 -6z m409 -7 c3 -3 3 -9 -1 -13 -4 -4 -11 -1 -17 7 -8 13 -10 13 -18 1
-10 -15 -41 -8 -41 9 0 11 65 8 77 -4z m-887 -16 c0 -5 -10 -10 -22 -10 -19 0
-20 2 -8 10 19 13 30 13 30 0z m-98 -75 c3 -15 1 -25 -6 -25 -6 0 -11 13 -11
29 0 34 11 32 17 -4z m-212 0 c0 -14 -2 -25 -4 -25 -2 0 -6 11 -8 25 -3 14 -1
25 3 25 5 0 9 -11 9 -25z m344 3 c-4 -6 0 -15 7 -20 12 -8 11 -9 -1 -5 -8 2
-17 14 -18 26 -2 15 0 21 7 16 6 -3 8 -11 5 -17z m163 -10 c-3 -7 -5 -2 -5 12
0 14 2 19 5 13 2 -7 2 -19 0 -25z m30 0 c-3 -7 -5 -2 -5 12 0 14 2 19 5 13 2
-7 2 -19 0 -25z m-561 11 c3 -6 1 -16 -6 -22 -10 -9 -11 -9 -6 0 3 6 2 14 -4
18 -5 3 -10 -2 -10 -11 0 -13 -3 -15 -11 -7 -6 6 -8 16 -5 22 9 14 33 14 42 0z
m48 -19 c-6 -6 -10 -2 -11 12 -2 16 1 18 10 9 7 -7 8 -14 1 -21z m86 26 c0 -3
-4 -8 -10 -11 -5 -3 -10 -1 -10 4 0 6 5 11 10 11 6 0 10 -2 10 -4z m60 -6 c0
-5 -7 -7 -15 -4 -8 4 -15 2 -15 -4 0 -6 6 -13 13 -15 9 -4 9 -6 0 -6 -15 -1
-26 16 -18 29 8 13 35 13 35 0z m96 -2 c5 -8 2 -9 -9 -5 -18 7 -24 -8 -7 -16
6 -3 5 -4 -2 -3 -19 4 -22 36 -4 36 8 0 18 -5 22 -12z m34 2 c-13 -9 -13 -11
0 -21 13 -9 13 -10 0 -6 -22 6 -25 37 -3 37 15 0 16 -2 3 -10z m-447 -7 c-7
-2 -19 -2 -25 0 -7 3 -2 5 12 5 14 0 19 -2 13 -5z m267 -13 c0 -5 -8 -10 -17
-10 -15 0 -16 2 -3 10 19 12 20 12 20 0z m857 -77 c-3 -10 -5 -2 -5 17 0 19 2
27 5 18 2 -10 2 -26 0 -35z m58 36 c4 -6 4 -13 0 -17 -3 -3 -10 0 -15 8 -8 13
-10 12 -10 -2 0 -9 6 -19 13 -21 9 -4 9 -6 0 -6 -16 -1 -26 17 -19 34 6 18 22
19 31 4z m35 -19 c0 -16 -3 -30 -7 -30 -5 0 -8 14 -8 30 0 17 3 30 8 30 4 0 7
-13 7 -30z m-680 -5 c0 -14 -2 -25 -4 -25 -2 0 -6 11 -8 25 -3 14 -1 25 3 25
5 0 9 -11 9 -25z m140 5 c-7 -4 -9 -13 -6 -19 4 -6 3 -11 -2 -11 -11 0 -23 36
-15 44 3 2 12 2 20 -1 11 -4 12 -8 3 -13z m83 3 c-7 -3 -13 -9 -13 -14 0 -6 5
-7 10 -4 6 3 10 1 10 -4 0 -6 -7 -11 -15 -11 -8 0 -15 6 -15 13 0 16 22 39 29
30 3 -3 0 -8 -6 -10z m114 -15 c-3 -7 -5 -2 -5 12 0 14 2 19 5 13 2 -7 2 -19
0 -25z m179 12 c0 -11 -4 -20 -8 -20 -4 0 -8 9 -8 20 0 11 4 20 8 20 4 0 8 -9
8 -20z m44 -12 c0 -19 -16 -5 -17 14 -2 18 0 20 7 8 5 -8 10 -18 10 -22z
m-885 13 c3 -5 0 -13 -6 -17 -8 -4 -7 -9 2 -16 11 -8 11 -9 -1 -5 -17 4 -27
47 -11 47 5 0 12 -4 16 -9z m139 -13 c-4 -6 0 -14 7 -19 10 -6 10 -9 2 -9 -14
0 -35 35 -26 43 9 10 24 -3 17 -15z m270 11 c-3 -6 0 -15 7 -20 11 -7 10 -9
-3 -9 -18 0 -24 20 -11 33 10 11 15 8 7 -4z m106 0 c0 -5 -5 -7 -12 -3 -8 5
-9 2 -5 -9 3 -10 2 -17 -3 -17 -11 0 -13 23 -3 33 10 10 23 8 23 -4z m130 -3
c0 -20 -17 -29 -26 -15 -4 8 -3 9 4 5 7 -4 12 -3 12 3 0 5 -6 12 -12 14 -8 3
-6 6 5 6 9 1 17 -5 17 -13z m37 -8 c-3 -8 -6 -5 -6 6 -1 11 2 17 5 13 3 -3 4
-12 1 -19z m39 -13 c-3 -8 -11 -15 -18 -14 -10 0 -10 2 0 6 6 2 12 14 13 26 0
12 3 16 6 9 3 -7 2 -19 -1 -27z m21 13 c-3 -8 -6 -5 -6 6 -1 11 2 17 5 13 3
-3 4 -12 1 -19z m48 12 c-3 -5 -1 -10 6 -10 7 0 10 -3 6 -6 -9 -9 -28 6 -22
17 4 5 8 9 11 9 3 0 2 -4 -1 -10z m-949 -24 c0 -15 -5 -21 -10 -16 -5 5 -6 16
-3 24 9 23 15 19 13 -8z m85 17 c16 10 21 9 29 -3 13 -19 12 -30 0 -30 -5 0
-11 8 -11 18 -1 16 -2 16 -6 0 -2 -10 -8 -18 -12 -18 -11 0 -31 23 -30 35 0 5
3 5 6 -2 3 -10 9 -10 24 0z m129 -4 c0 -5 -5 -7 -12 -3 -8 5 -9 2 -5 -9 3 -10
2 -17 -3 -17 -13 0 -22 18 -15 30 8 13 35 13 35 -1z m46 -9 c0 -9 -7 -16 -16
-16 -9 0 -16 8 -16 17 0 10 7 17 16 16 9 0 16 -8 16 -17z m133 6 c9 -11 9 -16
0 -22 -8 -4 -9 -3 -5 4 4 7 2 12 -3 12 -6 0 -11 5 -11 10 0 14 5 13 19 -4z
m61 2 c0 -4 -8 -8 -17 -8 -16 0 -16 -2 -3 -11 13 -9 13 -10 0 -6 -24 6 -25 36
-1 34 12 -1 21 -5 21 -9z m70 -9 c0 -6 -4 -7 -10 -4 -5 3 -10 11 -10 16 0 6 5
7 10 4 6 -3 10 -11 10 -16z m-483 4 c-4 -3 -2 -12 5 -20 8 -11 7 -12 -6 -7
-18 7 -22 34 -4 34 6 0 8 -3 5 -7z m-197 -13 c0 -5 -8 -10 -17 -10 -15 0 -16
2 -3 10 19 12 20 12 20 0z m60 -6 c0 -8 -5 -12 -10 -9 -6 4 -8 11 -5 16 9 14
15 11 15 -7z m1252 -39 c3 -14 1 -25 -3 -25 -5 0 -9 11 -9 25 0 14 2 25 4 25
2 0 6 -11 8 -25z m-442 -20 c0 -19 -3 -35 -7 -35 -5 0 -8 16 -8 35 0 19 3 35
8 35 4 0 7 -16 7 -35z m162 10 c3 -16 1 -25 -7 -25 -8 0 -10 9 -7 25 2 14 6
25 7 25 1 0 5 -11 7 -25z m115 -7 c-3 -7 -5 -2 -5 12 0 14 2 19 5 13 2 -7 2
-19 0 -25z m-695 -13 c-2 -19 -6 -35 -8 -35 -2 0 -4 16 -4 35 0 19 4 35 8 35
4 0 6 -16 4 -35z m493 25 c-3 -5 -1 -10 4 -10 6 0 11 -4 11 -10 0 -19 -26 -10
-27 10 -1 11 3 20 8 20 6 0 7 -4 4 -10z m55 -1 c0 -5 -5 -7 -12 -3 -8 5 -9 1
-4 -12 5 -14 4 -16 -5 -7 -6 6 -8 16 -5 22 9 14 26 14 26 0z m80 0 c0 -5 -4
-7 -10 -4 -5 3 -10 1 -10 -6 0 -7 -3 -10 -6 -6 -8 7 4 27 17 27 5 0 9 -5 9
-11z m27 -4 c0 -8 -4 -15 -9 -15 -10 0 -11 14 -1 23 9 10 10 9 10 -8z m133 5
c0 -5 -4 -10 -10 -10 -5 0 -10 5 -10 10 0 6 5 10 10 10 6 0 10 -4 10 -10z
m-1020 -35 c0 -27 -4 -35 -17 -35 -15 0 -15 2 -4 9 8 5 11 16 7 26 -6 16 -1
35 10 35 2 0 4 -16 4 -35z m150 19 c0 -2 -7 -4 -15 -4 -8 0 -15 4 -15 10 0 5
7 7 15 4 8 -4 15 -8 15 -10z m238 -9 c-3 -3 -9 2 -12 12 -6 14 -5 15 5 6 7 -7
10 -15 7 -18z m91 3 c-1 -17 -2 -19 -6 -5 -6 22 -23 22 -23 0 0 -9 -3 -14 -6
-10 -11 10 4 37 21 37 9 0 15 -8 14 -22z m39 5 c-3 -19 -28 -31 -28 -13 0 6 5
8 10 5 6 -3 10 -2 10 4 0 5 -6 12 -12 14 -8 3 -5 6 5 6 12 1 17 -5 15 -16z
m52 2 c0 -18 -20 -20 -21 -2 0 6 -4 3 -9 -8 -8 -19 -9 -19 -9 3 -1 16 5 22 19
22 11 0 20 -7 20 -15z m40 4 c0 -4 -7 -9 -15 -13 -9 -3 -15 0 -15 8 0 7 7 13
15 13 8 0 15 -4 15 -8z m-680 -26 c0 -20 -3 -24 -11 -16 -7 7 -9 19 -6 27 10
24 17 19 17 -11z m125 -2 c-3 -3 -10 1 -15 9 -8 13 -10 12 -10 -3 0 -10 -5
-15 -10 -12 -8 5 -7 11 1 21 9 11 15 12 26 3 7 -7 11 -14 8 -18z m36 20 c-7
-5 -10 -14 -7 -20 4 -6 2 -11 -3 -11 -12 0 -15 23 -4 33 3 4 11 7 17 7 6 0 5
-4 -3 -9z m99 5 c0 -3 -4 -8 -10 -11 -5 -3 -10 -1 -10 4 0 6 5 11 10 11 6 0
10 -2 10 -4z m83 -16 c3 -11 1 -18 -4 -14 -5 3 -9 12 -9 20 0 20 7 17 13 -6z
m27 5 c0 -8 -2 -15 -4 -15 -2 0 -6 7 -10 15 -3 8 -1 15 4 15 6 0 10 -7 10 -15z
m17 -7 c-3 -8 -6 -5 -6 6 -1 11 2 17 5 13 3 -3 4 -12 1 -19z m20 0 c-3 -8 -6
-5 -6 6 -1 11 2 17 5 13 3 -3 4 -12 1 -19z m27 7 c3 -8 1 -15 -4 -15 -6 0 -10
7 -10 15 0 8 2 15 4 15 2 0 6 -7 10 -15z m-404 -16 c0 -5 -4 -9 -10 -9 -5 0
-10 7 -10 16 0 8 5 12 10 9 6 -3 10 -10 10 -16z m-165 1 c3 -5 1 -10 -4 -10
-6 0 -11 5 -11 10 0 6 2 10 4 10 3 0 8 -4 11 -10z m350 -8 c-3 -3 -11 0 -18 7
-9 10 -8 11 6 5 10 -3 15 -9 12 -12z m55 8 c0 -5 -8 -10 -17 -10 -15 0 -16 2
-3 10 19 12 20 12 20 0z m1283 -79 c4 -1 7 -10 7 -21 0 -16 -7 -20 -33 -20
-46 0 -78 34 -39 42 15 3 26 3 65 -1z m-160 -18 c4 -2 7 -11 7 -18 0 -11 -16
-14 -70 -13 -78 2 -94 18 -32 35 33 9 74 7 95 -4z m-185 -22 c-2 -10 -15 -16
-36 -18 -27 -2 -33 0 -30 15 2 9 11 16 21 16 9 -1 17 2 17 7 0 5 7 6 15 2 9
-3 15 -13 13 -22z m-318 -6 c0 -14 -4 -25 -9 -25 -5 0 -11 11 -13 25 -4 17 -1
25 8 25 8 0 14 -11 14 -25z m178 12 c25 4 32 2 32 -11 0 -12 -10 -16 -40 -16
-22 0 -40 5 -40 10 0 6 -5 10 -11 10 -6 0 -8 -8 -5 -17 5 -16 4 -15 -9 1 -19
25 -10 37 18 27 12 -5 37 -6 55 -4z m180 -9 c-2 -12 -8 -23 -14 -25 -7 -2 -10
6 -7 22 6 30 26 34 21 3z m-406 -13 c3 -14 1 -25 -3 -25 -5 0 -9 4 -9 9 0 5
-3 16 -6 25 -3 9 -2 16 4 16 5 0 12 -11 14 -25z m98 16 c0 -5 -8 -18 -17 -30
l-18 -22 -1 25 c-1 14 2 24 6 21 5 -3 11 -1 15 5 8 12 15 13 15 1z m490 0 c0
-6 -4 -13 -10 -16 -5 -3 -10 1 -10 9 0 9 5 16 10 16 6 0 10 -4 10 -9z m-978
-31 c4 -25 1 -30 -16 -30 -16 0 -18 2 -7 9 8 5 12 18 8 30 -3 12 -2 21 3 21 4
0 10 -13 12 -30z m136 9 c-11 -7 -10 -11 2 -19 13 -8 13 -10 -1 -10 -9 0 -19
9 -22 19 -6 24 0 31 20 24 12 -5 12 -7 1 -14z m180 -2 c3 -14 -5 -17 -36 -17
-28 0 -39 4 -39 15 0 8 6 15 14 15 7 0 13 -4 13 -8 0 -4 9 -8 19 -8 16 0 18 3
8 15 -10 11 -9 13 3 9 8 -2 16 -12 18 -21z m32 13 c-13 -9 -13 -11 0 -20 13
-8 12 -10 -2 -10 -11 0 -18 8 -18 20 0 12 7 20 18 20 14 0 15 -2 2 -10z m-257
-7 c-7 -2 -13 -10 -13 -17 0 -9 -10 -12 -27 -9 -23 4 -25 2 -13 -7 13 -10 13
-11 0 -7 -23 6 -25 37 -2 32 10 -2 25 1 33 6 8 5 19 8 24 8 6 0 4 -3 -2 -6z
m137 -5 c0 -4 -6 -8 -12 -8 -9 0 -8 -4 2 -10 8 -5 10 -10 4 -10 -14 0 -36 25
-29 32 8 8 35 5 35 -4z m-764 -48 c2 -42 -4 -48 -24 -28 -15 15 -15 51 0 66
16 16 22 8 24 -38z m54 35 c0 -8 -6 -15 -14 -15 -20 0 -29 17 -14 23 22 9 28
7 28 -8z m102 -15 c3 -23 1 -30 -11 -30 -11 0 -16 9 -16 30 0 17 5 30 11 30 7
0 14 -13 16 -30z m285 12 c1 -10 -5 -19 -13 -19 -14 0 -19 19 -7 30 11 12 19
8 20 -11z m59 6 c5 -8 2 -9 -9 -5 -10 3 -17 2 -17 -2 0 -5 6 -12 13 -14 7 -3
6 -6 -5 -6 -20 -1 -32 15 -23 29 8 14 32 13 41 -2z m-290 -10 c4 -6 2 -14 -4
-16 -7 -2 -10 -8 -6 -13 3 -5 -2 -9 -11 -9 -21 0 -31 30 -14 41 19 12 26 11
35 -3z m52 -9 c2 -10 -6 -19 -18 -22 -24 -6 -38 11 -15 19 13 6 14 9 3 16 -9
7 -8 8 7 6 11 -2 21 -10 23 -19z m32 11 c-10 -6 -11 -10 -2 -10 6 0 12 -4 12
-10 0 -5 -7 -10 -15 -10 -8 0 -15 9 -15 20 0 12 7 20 18 20 14 0 15 -2 2 -10z
m60 -1 c0 -5 -4 -7 -10 -4 -5 3 -10 2 -10 -4 0 -5 6 -12 13 -14 7 -3 6 -6 -5
-6 -20 -1 -32 15 -23 29 8 13 35 13 35 -1z m-412 -16 c-4 -23 -38 -30 -38 -8
0 9 5 13 10 10 6 -3 10 -1 10 4 0 6 5 11 11 11 6 0 9 -8 7 -17z m172 1 c0 -16
-27 -43 -42 -44 -5 0 -8 14 -8 30 0 25 4 30 25 30 17 0 25 -6 25 -16z m-258
-19 c0 -5 -5 -11 -11 -13 -6 -2 -11 4 -11 13 0 9 5 15 11 13 6 -2 11 -8 11
-13z m38 6 c0 -6 -4 -13 -10 -16 -5 -3 -10 1 -10 9 0 9 5 16 10 16 6 0 10 -4
10 -9z m771 -108 c-8 -3 -9 -8 -3 -12 6 -4 5 -11 -4 -19 -12 -11 -14 -10 -14
6 0 21 8 32 24 31 6 0 5 -3 -3 -6z m44 -2 c-3 -5 -1 -12 5 -16 14 -9 2 -25
-18 -24 -14 0 -14 2 2 8 18 7 18 8 2 14 -17 7 -14 27 5 27 6 0 8 -4 4 -9z
m-166 -28 c8 -15 8 -23 1 -23 -5 0 -10 8 -10 17 0 15 -2 14 -15 -3 -17 -22
-20 -12 -4 18 12 22 12 22 28 -9z m33 18 c-11 -7 -10 -9 3 -15 17 -6 12 -26
-6 -26 -6 0 -8 4 -4 9 3 5 1 12 -5 16 -16 10 -12 25 8 25 13 0 14 -2 4 -9z
m53 -31 c-3 -5 -12 -10 -18 -10 -7 0 -6 4 3 10 12 8 12 10 -3 16 -9 3 -14 10
-11 15 3 5 12 2 20 -6 9 -8 12 -19 9 -25z m-192 23 c-7 -2 -13 -11 -13 -18 0
-7 6 -16 13 -18 7 -3 5 -6 -5 -6 -11 -1 -18 6 -18 17 0 21 9 32 24 31 6 0 5
-3 -1 -6z m51 -35 c7 -5 5 -8 -6 -8 -13 0 -18 7 -17 28 1 21 2 22 6 7 3 -11
10 -23 17 -27z m-242 2 c-2 -16 -5 -30 -7 -30 -2 0 -5 14 -7 30 -3 19 0 30 7
30 7 0 10 -11 7 -30z m68 5 c7 -18 4 -21 -21 -23 -22 -2 -29 2 -29 16 0 38 37
43 50 7z m30 15 c5 7 8 2 8 -13 0 -22 -3 -24 -14 -12 -8 7 -14 20 -13 27 0 10
2 10 6 -1 4 -10 7 -10 13 -1z m-190 -20 c0 -11 4 -20 9 -20 5 0 11 9 14 20 3
11 10 20 15 20 11 0 24 -41 16 -49 -3 -3 -8 6 -11 19 l-6 24 -8 -22 c-11 -28
-29 -28 -37 1 -6 22 -6 22 -13 -3 l-7 -25 -1 28 c-1 18 4 27 14 27 8 0 15 -9
15 -20z m-73 -27 c-3 -10 -5 -4 -5 12 0 17 2 24 5 18 2 -7 2 -21 0 -30z m-56
4 c-13 -13 -26 -3 -16 12 3 6 11 8 17 5 6 -4 6 -10 -1 -17z m1379 -347 c0 -5
-4 -10 -10 -10 -5 0 -10 5 -10 10 0 6 5 10 10 10 6 0 10 -4 10 -10z m-70 -10
c0 -5 -7 -10 -15 -10 -8 0 -15 5 -15 10 0 6 7 10 15 10 8 0 15 -4 15 -10z m37
4 c-3 -3 -12 -4 -19 -1 -8 3 -5 6 6 6 11 1 17 -2 13 -5z m-82 -34 c1 -11 -2
-20 -6 -20 -9 0 -19 37 -11 44 8 9 16 -2 17 -24z m-751 4 c7 -18 -10 -54 -26
-54 -6 0 -6 6 3 16 10 12 10 20 1 35 -10 15 -9 19 2 19 8 0 17 -7 20 -16z
m632 -40 c-3 -8 -11 -14 -18 -13 -10 0 -10 2 0 6 6 2 13 19 13 36 1 25 3 27 6
9 3 -13 2 -30 -1 -38z m-37 37 c24 -15 5 -38 -33 -39 -38 -1 -50 16 -16 25 11
3 20 9 20 14 0 11 11 11 29 0z m105 -3 c-2 -3 2 -9 8 -12 7 -3 0 -4 -15 -1
-19 4 -26 2 -22 -5 3 -5 2 -10 -4 -10 -13 0 -24 18 -17 29 3 5 17 8 30 7 13 0
22 -4 20 -8z m-845 -19 c-12 -8 -11 -11 1 -19 13 -8 12 -10 -2 -10 -11 0 -18
7 -18 18 0 23 10 33 22 25 6 -3 4 -9 -3 -14z m99 14 c-10 -2 -18 -11 -18 -18
0 -8 -9 -13 -19 -12 -12 1 -17 6 -14 15 5 11 7 11 14 0 7 -10 9 -9 9 5 0 11 7
17 23 16 16 -1 18 -2 5 -6z m532 -17 c0 -31 -18 -37 -50 -17 -23 15 -24 15
-11 -2 12 -15 11 -17 -4 -17 -10 0 -15 6 -13 18 3 11 12 16 26 15 13 -2 25 4
28 12 9 23 24 18 24 -9z m-597 -6 c-3 -11 -7 -20 -9 -20 -2 0 -4 9 -4 20 0 11
4 20 9 20 5 0 7 -9 4 -20z m-100 -7 c-3 -7 0 -13 6 -13 6 0 11 7 11 15 0 8 5
15 10 15 7 0 7 -6 0 -20 -13 -25 -29 -25 -46 -2 -12 16 -13 16 -19 0 -4 -10
-11 -18 -16 -18 -6 0 -5 9 1 20 12 22 61 25 53 3z m599 -8 c6 -29 -7 -34 -15
-6 -4 17 0 31 9 31 1 0 4 -11 6 -25z m-669 2 c-2 -4 -9 -5 -14 -2 -5 4 -9 2
-9 -4 0 -5 6 -12 13 -15 6 -3 0 -4 -15 -2 -17 2 -35 -4 -48 -16 -17 -16 -20
-16 -20 -3 0 13 -4 14 -20 5 -16 -9 -22 -8 -26 5 -13 33 2 42 74 41 39 -1 68
-4 65 -9z m547 -12 c0 -14 -4 -25 -8 -25 -4 0 -9 11 -10 25 -1 14 3 25 8 25 6
0 10 -11 10 -25z m80 15 c-13 -9 -13 -11 0 -20 13 -8 12 -10 -2 -10 -10 0 -18
6 -18 13 0 17 10 27 24 27 6 0 4 -5 -4 -10z m-30 -11 c0 -5 -4 -7 -10 -4 -5 3
-10 2 -10 -4 0 -5 6 -12 13 -14 7 -3 6 -6 -5 -6 -20 -1 -32 15 -23 29 8 13 35
13 35 -1z m-84 -11 c5 -8 2 -9 -9 -5 -10 3 -17 2 -17 -2 0 -5 6 -12 13 -14 7
-3 5 -6 -5 -6 -10 -1 -18 5 -18 12 0 26 23 36 36 15z m-770 -14 c-3 -9 -6 -18
-6 -20 0 -2 -13 -4 -28 -4 -16 0 -32 -3 -35 -7 -11 -10 -57 -13 -57 -2 0 17 5
23 20 26 8 1 33 6 55 11 57 14 58 14 51 -4z m52 -1 c-4 -22 -22 -20 -26 1 -2
10 3 16 13 16 10 0 15 -7 13 -17z m509 -30 c-3 -10 -5 -2 -5 17 0 19 2 27 5
18 2 -10 2 -26 0 -35z m156 33 c6 -14 0 -26 -13 -26 -3 0 -6 9 -7 20 -2 23 12
27 20 6z m-623 -6 c0 -5 -4 -10 -10 -10 -5 0 -10 5 -10 10 0 6 5 10 10 10 6 0
10 -4 10 -10z m438 -11 c-11 -7 -10 -11 2 -19 13 -8 13 -10 -1 -10 -9 0 -19 9
-22 19 -6 24 0 31 20 24 12 -5 12 -7 1 -14z m102 10 c0 -5 -4 -7 -10 -4 -5 3
-10 2 -10 -4 0 -5 6 -11 13 -14 6 -3 -3 -5 -20 -4 -53 0 -40 31 15 36 6 0 12
-4 12 -10z m-780 -19 c0 -5 -2 -10 -4 -10 -3 0 -8 5 -11 10 -3 6 -1 10 4 10 6
0 11 -4 11 -10z m538 -11 c-11 -7 -10 -11 2 -19 13 -8 13 -10 -1 -10 -9 0 -19
9 -22 19 -6 24 0 31 20 24 12 -5 12 -7 1 -14z m62 -4 c0 -19 -30 -27 -37 -9
-3 8 -3 18 1 21 3 4 6 -1 6 -11 0 -9 4 -15 10 -11 5 3 6 13 3 22 -4 11 -3 14
5 9 7 -4 12 -13 12 -21z m-887 -2 c15 -3 27 -9 27 -15 0 -5 -8 -8 -17 -6 -9 2
-25 -10 -37 -27 l-21 -31 -21 26 c-28 34 -16 76 19 65 12 -4 34 -9 50 -12z
m77 -8 c0 -8 -4 -15 -10 -15 -5 0 -10 7 -10 15 0 8 5 15 10 15 6 0 10 -7 10
-15z m45 -6 c-10 -15 -25 -10 -19 6 4 8 10 12 15 9 5 -3 7 -10 4 -15z m625 10
c0 -6 -6 -9 -14 -6 -10 4 -16 -2 -19 -16 -4 -18 -5 -17 -6 6 -1 21 4 27 19 27
11 0 20 -5 20 -11z m535 1 c-3 -5 -10 -10 -16 -10 -5 0 -9 5 -9 10 0 6 7 10
16 10 8 0 12 -4 9 -10z m-749 -30 c-1 -16 -5 -30 -11 -30 -8 0 -10 14 -6 50 3
25 18 7 17 -20z m159 10 c0 -8 -10 -16 -22 -18 -13 -2 -23 1 -23 7 0 19 -30
12 -31 -6 0 -11 -3 -13 -6 -5 -7 18 -43 15 -43 -4 0 -8 -4 -13 -9 -10 -5 4 -8
14 -7 24 2 12 13 17 35 18 17 1 33 3 36 5 2 3 19 5 37 4 23 0 33 -5 33 -15z
m-803 3 c-10 -4 -10 -8 -1 -19 10 -12 9 -13 -5 -8 -21 8 -21 34 2 33 11 0 12
-2 4 -6z m1354 -15 c0 -10 -7 -18 -16 -18 -9 0 -16 8 -16 18 0 10 7 18 16 18
9 0 16 -8 16 -18z m-746 -13 c0 -20 -5 -25 -25 -25 -18 0 -25 5 -25 18 0 24 8
32 32 32 13 0 18 -7 18 -25z m660 14 c0 -5 -4 -7 -10 -4 -5 3 -10 0 -10 -8 0
-18 -53 -34 -58 -18 -6 17 -30 13 -35 -6 -4 -14 -5 -14 -6 3 -1 17 6 23 32 27
17 2 37 1 43 -4 8 -6 14 -4 18 6 6 17 26 21 26 4z m-770 -24 c0 -18 -5 -25
-19 -25 -24 0 -33 13 -25 34 10 27 44 20 44 -9z m-113 -28 c-7 -19 -53 -27
-73 -13 -13 10 -13 14 -2 23 17 14 60 21 72 12 5 -4 6 -14 3 -22z m696 13 c3
-12 0 -20 -7 -20 -6 0 -12 9 -12 20 0 11 3 20 7 20 4 0 9 -9 12 -20z m24 -2
c-3 -8 -6 -5 -6 6 -1 11 2 17 5 13 3 -3 4 -12 1 -19z m-1329 -19 l33 -16 -53
-6 c-63 -8 -78 3 -48 33 12 12 25 18 29 13 3 -5 21 -16 39 -24z m1272 17 c0
-13 -20 -26 -41 -26 -5 0 -9 9 -9 20 0 15 7 20 25 20 15 0 25 -6 25 -14z
m-900 -11 c10 -12 16 -13 27 -4 16 14 28 6 20 -14 -7 -19 -91 -32 -114 -18
-16 9 -15 11 7 12 19 1 21 2 6 6 -17 4 -16 6 5 18 32 17 35 17 49 0z m793 8
c-7 -2 -13 -12 -13 -20 0 -9 -6 -13 -14 -10 -7 3 -18 1 -24 -5 -7 -7 -18 -5
-35 7 -25 16 -26 15 -30 -7 -4 -21 -4 -21 -6 4 -1 26 1 27 44 24 25 -1 45 1
45 6 0 4 10 8 23 7 12 0 16 -3 10 -6z m-196 -9 c-3 -3 -2 -17 3 -30 8 -20 6
-24 -9 -24 -12 0 -17 7 -15 23 1 12 3 25 3 30 1 4 6 7 13 7 6 0 9 -3 5 -6z
m51 -11 c-9 -2 -19 -12 -21 -21 -3 -12 -5 -10 -6 6 -1 17 4 22 22 21 15 -1 17
-3 5 -6z m-88 -26 c0 -17 -6 -23 -25 -25 -18 -1 -25 3 -25 16 0 24 9 32 32 32
12 0 18 -7 18 -23z m-114 -12 c-1 -28 -21 -34 -30 -9 -7 19 1 34 19 34 7 0 12
-10 11 -25z m397 18 c-7 -2 -19 -2 -25 0 -7 3 -2 5 12 5 14 0 19 -2 13 -5z
m-453 -35 c0 -13 -6 -18 -17 -17 -10 2 -35 -3 -56 -10 -45 -15 -70 -3 -45 22
16 16 37 22 86 24 26 1 32 -3 32 -19z m-153 4 c19 -12 -13 -52 -40 -52 -23 0
-55 16 -47 23 42 34 66 42 87 29z m263 4 c0 -11 -19 -15 -25 -6 -3 5 1 10 9
10 9 0 16 -2 16 -4z m-622 -77 c-3 -36 -8 -44 -37 -60 -19 -10 -39 -23 -45
-29 -5 -5 -22 -10 -37 -10 -15 0 -31 -5 -35 -11 -3 -6 -17 -9 -30 -6 -16 3
-24 0 -24 -10 0 -11 -5 -11 -29 2 -17 8 -33 19 -36 25 -9 15 45 61 66 55 9 -3
20 -1 24 5 4 6 20 8 41 4 35 -6 38 -5 29 18 -4 9 -25 13 -71 13 -41 -1 -69 4
-76 12 -15 18 2 22 108 25 51 2 106 4 124 6 31 2 31 2 28 -39z m672 32 c0 -5
-10 -11 -22 -13 -17 -2 -22 -9 -21 -24 2 -16 -3 -21 -21 -21 -18 0 -23 5 -23
29 0 16 5 27 11 25 6 -2 20 -1 31 4 28 11 45 11 45 0z m-156 -52 c-16 -16 -37
-21 -100 -24 -71 -4 -77 -3 -54 10 14 7 28 11 33 8 4 -2 14 1 22 7 8 7 15 10
15 7 0 -3 12 -2 28 3 15 5 38 9 52 9 l24 1 -20 -21z m-194 -36 c0 -9 -6 -13
-15 -10 -8 4 -17 2 -20 -3 -7 -12 -65 -13 -82 -2 -10 6 -10 13 2 29 13 18 19
19 65 10 33 -6 50 -15 50 -24z m-745 -64 c-8 -11 -16 -11 -34 0 -22 14 -4 33
20 21 11 -6 17 -15 14 -21z m265 -19 c0 -5 -4 -10 -10 -10 -5 0 -10 5 -10 10
0 6 5 10 10 10 6 0 10 -4 10 -10z m1844 -26 c3 -7 -4 -14 -15 -17 -13 -4 -19
0 -20 11 -1 15 -2 15 -6 0 -4 -18 -10 -20 -60 -22 -16 -1 -31 -5 -35 -11 -4
-5 -8 2 -8 18 0 15 5 27 10 27 6 0 10 -6 10 -12 0 -9 4 -8 10 2 5 8 10 12 10
8 0 -3 12 -3 28 2 37 11 71 8 76 -6z m-196 -25 c-11 -7 -10 -11 2 -19 13 -8
12 -10 -2 -10 -12 0 -18 8 -18 25 0 18 4 23 16 18 13 -5 13 -7 2 -14z m-33
-20 c0 -7 -8 -15 -17 -17 -18 -3 -25 18 -11 32 10 10 28 1 28 -15z m-46 -11
c-1 -21 -2 -21 -7 -3 l-5 20 -8 -20 c-7 -19 -8 -19 -8 3 -1 13 5 22 14 22 9 0
15 -9 14 -22z m-91 -29 c-7 -5 -17 -9 -23 -9 -5 0 -3 5 5 10 11 7 11 10 2 10
-7 0 -10 5 -7 10 5 8 11 7 21 -1 12 -10 12 -14 2 -20z m-600 -11 c2 -13 -3
-30 -10 -36 -11 -9 -14 -4 -13 28 0 43 18 49 23 8z m42 22 c0 -5 -5 -10 -11
-10 -5 0 -7 5 -4 10 3 6 8 10 11 10 2 0 4 -4 4 -10z m428 -11 c-11 -7 -10 -11
2 -19 13 -8 13 -10 -1 -10 -18 0 -33 26 -24 40 3 5 13 6 21 3 13 -5 13 -7 2
-14z m89 4 c2 -6 -2 -13 -9 -16 -9 -3 -14 3 -14 14 0 20 17 21 23 2z m-1097
-19 c0 -8 -7 -14 -15 -14 -15 0 -21 21 -9 33 10 9 24 -2 24 -19z m495 16 c3
-5 1 -10 -6 -10 -6 0 -9 -8 -6 -20 6 -23 -11 -27 -19 -5 -12 30 15 61 31 35z
m465 -10 c-13 -9 -13 -11 0 -20 20 -13 -1 -13 -34 0 -26 9 -38 -3 -13 -13 7
-3 4 -6 -6 -6 -12 -1 -17 5 -15 17 2 10 12 17 25 17 12 0 25 3 29 8 4 4 12 7
18 7 6 0 4 -5 -4 -10z m-1027 -13 c3 -8 -3 -14 -15 -14 -16 -2 -17 1 -8 13 15
17 17 17 23 1z m510 -7 c-8 -29 -33 -34 -33 -7 0 15 6 23 19 24 14 1 17 -3 14
-17z m137 10 c0 -5 -5 -10 -11 -10 -5 0 -7 5 -4 10 3 6 8 10 11 10 2 0 4 -4 4
-10z m-244 -16 c-3 -9 -6 -21 -6 -27 0 -8 -24 -13 -65 -14 -36 -1 -65 2 -65 6
0 8 55 24 87 26 7 0 18 6 25 13 17 17 31 15 24 -4z m64 11 c0 -3 -9 -15 -20
-27 -18 -20 -20 -20 -26 -4 -4 11 -1 22 7 27 16 10 39 12 39 4z m437 -28 c-5
-15 -78 -30 -90 -18 -13 13 0 31 23 31 10 0 22 5 25 10 8 14 47 -8 42 -23z
m43 14 c0 -20 -27 -48 -37 -37 -3 3 -1 6 5 6 16 0 15 37 0 43 -7 3 -3 6 10 6
15 1 22 -5 22 -18z m-290 -63 c0 -10 -6 -18 -13 -18 -8 0 -13 9 -11 23 1 12 3
27 3 32 2 16 21 -18 21 -37z m100 32 c0 -6 -6 -10 -12 -10 -9 0 -8 -4 2 -10
12 -8 11 -10 -7 -10 -13 0 -23 5 -23 12 0 6 -7 3 -15 -8 -13 -16 -16 -17 -25
-4 -13 19 -13 30 0 30 6 0 10 -6 10 -12 1 -9 4 -8 10 2 10 17 60 25 60 10z
m-150 -10 c12 -8 12 -10 1 -10 -8 0 -11 -7 -8 -20 3 -13 0 -20 -9 -20 -8 0
-14 7 -14 15 0 17 -9 19 -30 5 -13 -8 -12 -10 3 -10 11 0 15 -5 11 -11 -3 -6
-15 -9 -25 -6 -10 3 -22 1 -25 -4 -8 -14 -44 -10 -44 5 0 20 25 37 43 30 8 -3
18 -1 22 5 3 6 15 11 26 11 10 0 19 5 19 10 0 13 11 13 30 0z m-204 -63 c2
-22 -1 -27 -20 -27 -12 0 -26 -3 -29 -6 -6 -6 -62 -14 -102 -15 -10 0 -24 -4
-30 -9 -28 -23 -149 -31 -153 -9 -4 20 68 46 168 60 47 6 99 17 115 24 39 17
47 14 51 -18z m49 -7 c-3 -5 -10 -10 -16 -10 -5 0 -9 5 -9 10 0 6 7 10 16 10
8 0 12 -4 9 -10z"/>
<path d="M2155 3910 c3 -5 8 -10 11 -10 2 0 4 5 4 10 0 6 -5 10 -11 10 -5 0
-7 -4 -4 -10z"/>
<path d="M2155 3650 c-3 -5 -1 -10 4 -10 6 0 11 5 11 10 0 6 -2 10 -4 10 -3 0
-8 -4 -11 -10z"/>
<path d="M2290 3620 c0 -5 5 -10 10 -10 6 0 10 5 10 10 0 6 -4 10 -10 10 -5 0
-10 -4 -10 -10z"/>
<path d="M2290 3455 c0 -8 5 -15 10 -15 6 0 10 7 10 15 0 8 -4 15 -10 15 -5 0
-10 -7 -10 -15z"/>
<path d="M2060 3400 c0 -5 5 -10 11 -10 5 0 7 5 4 10 -3 6 -8 10 -11 10 -2 0
-4 -4 -4 -10z"/>
<path d="M2380 3095 c0 -8 5 -15 10 -15 6 0 10 7 10 15 0 8 -4 15 -10 15 -5 0
-10 -7 -10 -15z"/>
<path d="M2380 2755 c0 -8 5 -15 10 -15 6 0 10 7 10 15 0 8 -4 15 -10 15 -5 0
-10 -7 -10 -15z"/>
<path d="M2110 2070 c0 -5 5 -10 11 -10 5 0 7 5 4 10 -3 6 -8 10 -11 10 -2 0
-4 -4 -4 -10z"/>
<path d="M2380 1980 c0 -5 5 -10 10 -10 6 0 10 5 10 10 0 6 -4 10 -10 10 -5 0
-10 -4 -10 -10z"/>
<path d="M2720 1980 c0 -5 5 -10 10 -10 6 0 10 5 10 10 0 6 -4 10 -10 10 -5 0
-10 -4 -10 -10z"/>
<path d="M2760 1979 c0 -5 5 -7 10 -4 6 3 10 8 10 11 0 2 -4 4 -10 4 -5 0 -10
-5 -10 -11z"/>
<path d="M3080 1590 c0 -5 5 -10 10 -10 6 0 10 5 10 10 0 6 -4 10 -10 10 -5 0
-10 -4 -10 -10z"/>
<path d="M3120 1590 c0 -5 5 -10 10 -10 6 0 10 5 10 10 0 6 -4 10 -10 10 -5 0
-10 -4 -10 -10z"/>
<path d="M1960 1355 c0 -8 7 -15 15 -15 8 0 15 7 15 15 0 8 -7 15 -15 15 -8 0
-15 -7 -15 -15z"/>
<path d="M2680 899 c0 -5 5 -7 10 -4 6 3 10 8 10 11 0 2 -4 4 -10 4 -5 0 -10
-5 -10 -11z"/>
<path d="M1816 884 c-4 -10 -1 -14 6 -12 15 5 23 28 10 28 -5 0 -13 -7 -16
-16z"/>
<path d="M2340 769 c0 -5 5 -7 10 -4 6 3 10 8 10 11 0 2 -4 4 -10 4 -5 0 -10
-5 -10 -11z"/>
<path d="M2010 720 c0 -5 5 -10 10 -10 6 0 10 5 10 10 0 6 -4 10 -10 10 -5 0
-10 -4 -10 -10z"/>
<path d="M2760 420 c0 -5 5 -10 10 -10 6 0 10 5 10 10 0 6 -4 10 -10 10 -5 0
-10 -4 -10 -10z"/>
<path d="M2600 390 c0 -5 5 -10 10 -10 6 0 10 5 10 10 0 6 -4 10 -10 10 -5 0
-10 -4 -10 -10z"/>
<path d="M2110 289 c0 -5 5 -7 10 -4 6 3 10 8 10 11 0 2 -4 4 -10 4 -5 0 -10
-5 -10 -11z"/>
<path d="M4418 3353 c12 -2 32 -2 45 0 12 2 2 4 -23 4 -25 0 -35 -2 -22 -4z"/>
</g>
</svg>
